<svg width="144" height="34" viewBox="0 0 144 34" fill="none" xmlns="http://www.w3.org/2000/svg">
<rect x="0.807704" y="2.35398" width="29.2686" height="29.2686" stroke="white" stroke-width="0.731405"/>
<path d="M19.3969 6.63393V8.94869C19.9936 8.87636 22.1456 8.80402 22.7967 8.80402C25.1657 8.80402 27.5347 9.49122 27.5347 12.3304C27.5347 14.6452 25.9252 15.9292 23.303 15.9292H16.9555V4.5H26.6486V6.63393H23.7461H19.3969ZM19.3969 10.8837V13.7591H23.1945C24.4966 13.7591 25.0029 13.09 25.0029 12.24C25.0029 11.0103 23.8817 10.7209 22.7243 10.7209C22.0552 10.7209 19.9032 10.8114 19.3969 10.8837Z" fill="white"/>
<path d="M6.46636 6.63393V10.4858C6.90038 10.5763 8.40136 10.5943 8.83538 10.5943C10.2459 10.5943 11.3129 10.0337 11.3129 8.49659C11.3129 7.46579 10.8608 6.63393 9.10665 6.63393H6.46636ZM6.46636 12.4932V15.9292H4.02501V4.5H9.25132C12.615 4.5 13.8628 6.34458 13.8628 8.55084C13.8628 11.5528 11.548 12.6559 9.17898 12.6559C8.58221 12.6559 7.02697 12.6198 6.46636 12.4932Z" fill="white"/>
<path d="M21.6452 29.5005C18.0465 29.5005 15.6051 27.041 15.569 23.5146C15.6051 19.9701 18.0465 17.5469 21.6452 17.5469C25.2801 17.5469 27.6672 19.9701 27.7034 23.5146C27.6672 27.041 25.2801 29.5005 21.6452 29.5005ZM21.6452 27.2219C23.6526 27.2219 25.1535 25.8113 25.1535 23.5146C25.1535 21.218 23.6526 19.7893 21.6452 19.7893C19.6379 19.7893 18.155 21.218 18.155 23.5146C18.155 25.8113 19.6379 27.2219 21.6452 27.2219Z" fill="white"/>
<path d="M4.02501 29.2378V17.8086H13.8266V29.2378H11.3852V20.0149H6.46636V29.2378H4.02501Z" fill="white"/>
<path d="M47.4985 3.14409V9.5H38.7893V3.14409H40.1369V8.29318H42.4701V3.14409H43.8177V8.29318H46.1509V3.14409H47.4985ZM49.0229 9.5V3.14409H50.3806V5.78904H50.6924L52.9049 3.14409H54.4938L51.869 6.21142L54.8056 9.5H53.0356L50.7125 6.82489H50.3806V9.5H49.0229ZM57.9032 9.68102C55.9019 9.68102 54.5442 8.3133 54.5241 6.35222C54.5442 4.38108 55.9019 3.03347 57.9032 3.03347C59.9246 3.03347 61.2521 4.38108 61.2722 6.35222C61.2521 8.3133 59.9246 9.68102 57.9032 9.68102ZM57.9032 8.41386C59.0195 8.41386 59.8542 7.62943 59.8542 6.35222C59.8542 5.075 59.0195 4.28051 57.9032 4.28051C56.7869 4.28051 55.9622 5.075 55.9622 6.35222C55.9622 7.62943 56.7869 8.41386 57.9032 8.41386ZM62.9466 3.14409H67.452V9.5H66.1145V4.35091H64.2037V4.89398C64.2037 8.62506 63.55 9.58045 62.1621 9.58045C61.9409 9.58045 61.6291 9.56034 61.4582 9.51006L61.5487 8.43398C61.599 8.44403 61.6493 8.44403 61.7297 8.44403C62.5141 8.44403 62.9466 7.95125 62.9466 4.46154V3.14409ZM69.5225 9.5H68.1145L71.2523 3.14409H71.6244L74.8425 9.5H73.3642L72.8412 8.38369H70.0354L69.5225 9.5ZM72.3484 7.31767L71.4333 5.35659L70.5282 7.31767H72.3484ZM42.8523 15.6627V18.901C43.9183 18.901 44.6223 18.2573 44.6223 17.2818C44.6223 16.3164 43.9183 15.6627 42.8523 15.6627ZM42.8523 20.7514H41.4946V20.0676C39.5335 20.0676 38.3267 18.8406 38.3267 17.2516C38.3267 15.6627 39.5436 14.4961 41.4946 14.4961V13.9228H42.8523V14.4961C44.7932 14.4961 46.0202 15.6627 46.0202 17.2617C46.0202 18.8406 44.8234 20.0676 42.8523 20.0676V20.7514ZM41.4946 18.901V15.6627C40.4185 15.6627 39.7146 16.3164 39.7146 17.2818C39.7146 18.2573 40.4185 18.901 41.4946 18.901ZM49.5018 17.6238L51.0405 14.1441H52.4987L50.1052 18.9613C49.5119 20.1581 48.8582 20.6006 47.9933 20.6006C47.6916 20.6006 47.4301 20.5603 47.1787 20.4799V19.3234C47.3597 19.3837 47.5508 19.4239 47.7318 19.4239C48.114 19.4239 48.476 19.2831 48.7677 18.9412L46.2233 14.1441H47.7217L49.5018 17.6238ZM57.2138 16.6985V14.1441H58.5715V20.5H57.2138V17.9255H54.3778V20.5H53.0201V14.1441H54.3778V16.6985H57.2138ZM59.5882 21.6867V19.2932H60.1816C60.6744 18.1668 60.9057 17.0505 60.9057 14.8682V14.1441H65.4916V19.2932H66.2358V21.6867H64.9586V20.5H60.8654V21.6867H59.5882ZM64.144 15.3509H62.1929V16.0348C62.1929 17.3723 61.9717 18.378 61.5895 19.2932H64.144V15.3509ZM68.3145 20.5H66.9065L70.0443 14.1441H70.4164L73.6345 20.5H72.1562L71.6332 19.3837H68.8274L68.3145 20.5ZM71.1404 18.3177L70.2253 16.3566L69.3202 18.3177H71.1404ZM80.1857 17.2014L78.0738 20.5603L75.9216 17.2014L75.3886 20.5H74.041L75.1774 14.1441H75.5193L78.0738 18.2774L80.6483 14.1441H80.9802L82.1267 20.5H80.769L80.1857 17.2014ZM83.3575 20.5V14.1441H88.1244V15.3308H84.6951V16.6985H87.7021V17.8852H84.6951V19.3133H88.1647V20.5H83.3575ZM93.3653 16.6985V14.1441H94.723V20.5H93.3653V17.9255H90.5293V20.5H89.1716V14.1441H90.5293V16.6985H93.3653ZM95.4883 15.3308V14.1441H100.818V15.3308H98.8071V20.5H97.4997V15.3308H95.4883ZM101.294 20.5H99.8858L103.024 14.1441H103.396L106.614 20.5H105.135L104.613 19.3837H101.807L101.294 20.5ZM104.12 18.3177L103.205 16.3566L102.299 18.3177H104.12ZM108.742 14.1441H113.248V20.5H111.91V15.3509H110V15.894C110 19.6251 109.346 20.5805 107.958 20.5805C107.737 20.5805 107.425 20.5603 107.254 20.5101L107.345 19.434C107.395 19.444 107.445 19.444 107.526 19.444C108.31 19.444 108.742 18.9513 108.742 15.4615V14.1441ZM117.279 19.2932C118.054 19.2932 118.506 18.9714 118.506 18.3277C118.506 17.6338 118.034 17.3723 117.239 17.3723C116.857 17.3723 116.455 17.4226 116.133 17.4628V19.2932H117.279ZM114.775 20.5V14.1441H116.133V16.3264C116.535 16.256 116.948 16.2259 117.33 16.2259C118.748 16.2259 119.914 16.7689 119.914 18.378C119.914 19.5446 119.1 20.5 117.491 20.5H114.775ZM125.176 16.6985V14.1441H126.534V20.5H125.176V17.9255H122.34V20.5H120.982V14.1441H122.34V16.6985H125.176ZM133.775 20.5V14.1441H135.133V20.5H133.775ZM130.497 19.2932C131.271 19.2932 131.724 18.9714 131.724 18.3277C131.724 17.6338 131.251 17.3723 130.457 17.3723C130.075 17.3723 129.743 17.4226 129.421 17.4628V19.2932H130.497ZM128.063 20.5V14.1441H129.421V16.3264C129.823 16.256 130.165 16.2259 130.547 16.2259C131.965 16.2259 133.132 16.7689 133.132 18.378C133.132 19.5446 132.317 20.5 130.708 20.5H128.063ZM137.36 20.5H135.802L138.326 17.2014L136.184 14.1441H137.763L139.09 16.1655L140.508 14.1441H142.067L139.935 17.0706L142.389 20.5H140.82L139.14 18.0864L137.36 20.5ZM38.025 26.3308V25.1441H43.3551V26.3308H41.3438V31.5H40.0364V26.3308H38.025ZM44.1222 31.5V25.1441H48.8891V26.3308H45.4597V27.6985H48.4667V28.8852H45.4597V30.3133H48.9293V31.5H44.1222ZM50.8463 31.5H49.2875L51.8117 28.2014L49.6696 25.1441H51.2485L52.576 27.1655L53.9941 25.1441H55.5529L53.4208 28.0706L55.8747 31.5H54.3058L52.6263 29.0864L50.8463 31.5ZM60.7298 27.6985V25.1441H62.0874V31.5H60.7298V28.9255H57.8937V31.5H56.5361V25.1441H57.8937V27.6985H60.7298ZM66.6341 31.681C64.6328 31.681 63.2752 30.3133 63.255 28.3522C63.2752 26.3811 64.6328 25.0335 66.6341 25.0335C68.6555 25.0335 69.983 26.3811 70.0032 28.3522C69.983 30.3133 68.6555 31.681 66.6341 31.681ZM66.6341 30.4139C67.7504 30.4139 68.5852 29.6294 68.5852 28.3522C68.5852 27.075 67.7504 26.2805 66.6341 26.2805C65.5178 26.2805 64.6932 27.075 64.6932 28.3522C64.6932 29.6294 65.5178 30.4139 66.6341 30.4139ZM71.6775 25.1441H76.183V31.5H74.8454V26.3509H72.9346V26.894C72.9346 30.6251 72.281 31.5805 70.8931 31.5805C70.6719 31.5805 70.3601 31.5603 70.1891 31.5101L70.2796 30.434C70.3299 30.444 70.3802 30.444 70.4607 30.444C71.2451 30.444 71.6775 29.9513 71.6775 26.4615V25.1441ZM80.7274 31.681C78.7261 31.681 77.3684 30.3133 77.3483 28.3522C77.3684 26.3811 78.7261 25.0335 80.7274 25.0335C82.7488 25.0335 84.0763 26.3811 84.0965 28.3522C84.0763 30.3133 82.7488 31.681 80.7274 31.681ZM80.7274 30.4139C81.8437 30.4139 82.6784 29.6294 82.6784 28.3522C82.6784 27.075 81.8437 26.2805 80.7274 26.2805C79.6111 26.2805 78.7865 27.075 78.7865 28.3522C78.7865 29.6294 79.6111 30.4139 80.7274 30.4139ZM86.6104 26.3509V31.5H85.2628V25.1441H89.6677V26.3509H86.6104ZM96.0694 25.1441V31.5H94.7721V27.7086L90.9304 31.5H90.4778V25.1441H91.7751V28.9255L95.647 25.1441H96.0694ZM103.19 25.1441V31.5H101.892V27.7086L98.0507 31.5H97.5981V25.1441H98.8954V28.9255L102.767 25.1441H103.19ZM100.535 24.8826C99.4385 24.8826 98.644 24.1887 98.634 23.0925H99.7603C99.7603 23.5752 100.052 23.8568 100.535 23.8568C101.027 23.8568 101.319 23.5752 101.319 23.0925H102.446C102.435 24.1887 101.641 24.8826 100.535 24.8826Z" fill="white"/>
</svg>
