<svg width="98" height="70" viewBox="0 0 98 70" fill="currentColor" xmlns="http://www.w3.org/2000/svg">
<path d="M39.7579 56.0678H10.0991V50.7104C9.65644 50.8712 9.1946 51.0032 8.70996 51.1015V57.4546H39.7196C39.7016 56.9867 39.716 56.5237 39.7579 56.0666" />
<path d="M10.098 32.3013V1.38891H64.7804V19.2461C65.2147 19.005 65.6789 18.8047 66.1684 18.6439V0.000976562H8.70886V32.2941C8.82282 32.2929 8.93319 32.2869 9.04715 32.2869C9.41423 32.2869 9.76091 32.2929 10.098 32.3001" />
<path d="M65.6171 60.0932C64.5123 59.7129 63.9041 59.5857 63.3115 59.1923C61.9427 58.2806 62.0639 57.2189 62.5137 55.795C62.6217 55.4555 62.7321 55.1016 62.8304 54.7238C63.2239 53.1931 62.4358 51.8231 60.7719 51.149C60.4996 51.0386 59.9682 50.8659 59.3288 50.8527C59.0565 50.8467 58.7638 50.8695 58.4651 50.9414C58.254 50.9918 58.0416 51.0674 57.8281 51.1694C57.6218 51.2689 57.4154 51.3973 57.2139 51.5556C56.8228 51.8615 56.445 52.2826 56.1067 52.8728C55.9759 53.1019 55.862 53.325 55.7444 53.5506C55.7168 53.6033 55.6844 53.6597 55.658 53.7137C54.9299 55.1568 54.5112 56.5232 54.3589 57.9471C54.2725 58.7628 54.2641 59.5965 54.3493 60.4806C54.3757 60.7565 54.4117 61.012 54.4524 61.2496C54.5304 61.6994 54.6336 62.0833 54.7487 62.4132C54.8135 62.6003 54.8831 62.7719 54.9539 62.9242C54.9647 62.941 54.9779 62.9566 54.9887 62.9746C55.0042 62.9998 55.0126 63.0274 55.0162 63.055C55.3677 63.7603 55.7444 64.071 55.8788 64.1658C55.8907 64.1514 55.9039 64.1358 55.9171 64.1214C55.9591 64.071 56.0023 64.0206 56.0479 63.9679C56.439 63.5216 56.4366 63.5048 56.343 62.6087L56.3226 62.4108C56.3178 62.3604 56.319 62.316 56.3154 62.268C56.2806 61.6994 56.3742 61.2292 56.4869 60.9185C56.5829 60.6546 56.6897 60.5022 56.7341 60.5214C56.7233 60.6438 56.7221 60.7625 56.7233 60.8789C56.7293 61.3767 56.8216 61.8362 56.9104 62.2608C57.0796 63.0754 57.2319 63.7639 56.7029 64.3541C56.6585 64.4045 56.6165 64.4549 56.5757 64.5029C56.1727 64.9791 55.4649 65.2634 54.3397 64.8915C53.4592 64.6012 52.2452 64.5497 51.715 65.3618C51.5578 65.6041 51.4486 65.8068 51.3827 65.976C51.3107 66.1607 51.2915 66.3047 51.3311 66.4006C51.3719 66.5062 51.5038 66.5842 51.7173 66.6322C52.0268 66.7005 52.274 66.7281 52.5355 66.7557C52.7274 66.7761 52.9313 66.7977 53.1773 66.8397C53.4232 66.8805 53.7099 66.9417 54.0674 67.0388C54.1465 67.0604 54.2197 67.0772 54.2941 67.0964C54.3121 67.1012 54.3313 67.1072 54.3481 67.1108C55.2778 67.3411 55.9447 67.3687 57.1647 67.04C57.2919 67.0052 57.4082 66.9704 57.5222 66.9345C58.5503 66.6142 59.0793 66.2459 60.1061 65.7708C60.4096 65.6305 60.6867 65.333 60.9315 64.9767C61.2745 64.4813 61.554 63.8731 61.752 63.4028C61.8312 63.2169 61.8983 63.0514 61.9511 62.9266C62.0183 62.7695 62.0627 62.6723 62.0831 62.6699C62.1119 62.6675 62.1119 62.8774 62.0759 63.1929C62.0627 63.2949 62.0471 63.41 62.0255 63.5312C61.9595 63.9259 61.8479 64.4009 61.6764 64.8484C61.4485 65.4434 61.1174 65.9856 60.6508 66.2015C60.3077 66.3599 59.9862 66.499 59.6707 66.6274C59.7571 66.6562 59.8398 66.6801 59.925 66.7077C60.6795 66.9537 61.3981 67.1432 62.0891 67.2895C64.3143 66.2219 66.2289 63.0922 65.6171 60.092M57.3375 52.0751C57.3878 52.0475 57.4394 52.0247 57.4922 52.0067C57.7297 51.9203 57.9709 51.9299 58.146 51.9767C58.2696 52.0115 58.3607 52.0631 58.3883 52.1146C58.4267 52.1842 58.3319 52.2034 58.17 52.237C58.0116 52.2694 57.7897 52.3174 57.5678 52.4421C57.557 52.4481 57.545 52.4541 57.5354 52.4613C57.1059 52.706 56.8096 52.952 56.7341 52.8176C56.6561 52.6784 56.8888 52.327 57.3363 52.0763M59.7295 54.2535C59.7259 54.2691 59.7223 54.2847 59.7187 54.3003C59.8374 54.4299 60.4108 55.0848 60.4192 55.6055C60.1001 55.1148 59.7583 54.8101 59.6059 54.6866C59.5963 54.7154 59.5867 54.743 59.5771 54.7705C59.6827 54.9385 60.1169 55.6654 60.0366 56.1705C59.7942 55.6043 59.4979 55.2408 59.3792 55.1076C59.2124 55.314 58.9989 55.4507 58.777 55.5071C58.8634 55.6139 58.9017 55.729 58.867 55.831C58.855 55.8658 58.825 55.891 58.7974 55.9174C58.6738 56.0409 58.4207 56.0733 58.1424 55.9941C58.1196 55.9881 58.098 55.9869 58.074 55.9785C57.7105 55.8514 57.4754 55.5779 57.5486 55.3679C57.5846 55.266 57.6877 55.1988 57.8257 55.1688C57.7261 55.0141 57.6698 54.8089 57.6781 54.5546C57.473 54.6002 57.0532 54.7178 56.5709 54.9961C56.7928 54.5786 57.4802 54.2727 57.7297 54.1719C57.7345 54.1468 57.7417 54.1216 57.7489 54.0952C57.7513 54.088 57.7537 54.0784 57.7549 54.07C57.7525 54.07 57.7477 54.07 57.7441 54.07C57.5246 54.0832 57.1035 54.13 56.6045 54.3123C56.8408 54.0076 57.3663 53.8325 57.6961 53.7473C57.7669 53.7293 57.8317 53.7125 57.8797 53.7029C57.8905 53.6801 57.8989 53.6585 57.9097 53.6345C57.8437 53.6237 57.7645 53.6141 57.6758 53.6045C57.4502 53.5817 57.1563 53.5697 56.8144 53.6045C57.022 53.4426 57.3471 53.3718 57.641 53.3418C57.8329 53.3226 58.0128 53.3202 58.1364 53.3238C58.1808 53.2818 58.2312 53.2483 58.284 53.2207C58.3127 53.2039 58.3415 53.1883 58.3739 53.1787C58.3751 53.1787 58.3787 53.1775 58.3811 53.1775C58.3283 53.1307 58.2887 53.0851 58.26 53.0383C58.224 52.9784 58.2072 52.9208 58.2216 52.8668C58.224 52.856 58.2324 52.8476 58.2372 52.838C58.3271 52.6473 58.7626 52.5897 59.2496 52.7156C59.7607 52.8488 60.1313 53.1295 60.0773 53.3442C60.045 53.4678 59.8782 53.541 59.6467 53.5566C59.7235 53.6561 59.7583 53.7629 59.7667 53.8744C60.009 54.0448 60.562 54.4742 60.6795 54.9109C60.2957 54.5558 59.931 54.3483 59.7307 54.2487M61.7856 54.0352C61.668 54.5582 61.2541 54.3075 61.0538 53.7929C60.8547 53.277 60.5776 52.9412 60.6196 52.7528C60.6196 52.7528 60.9506 52.6329 61.3585 52.9568C61.6128 53.1595 61.9019 53.511 61.7856 54.034"/>
<path d="M74.8338 65.7944C75.1397 65.6193 75.7887 65.7272 76.0646 65.8664C76.0478 65.5161 75.9351 65.3482 75.1661 65.2186C74.432 65.095 74.0565 64.9403 73.6966 64.6788C73.3847 64.4533 72.6386 63.484 71.4546 63.3616C70.754 64.1534 69.0758 66.7841 66.3011 67.5962C67.7898 67.4906 69.2245 67.2891 69.9767 67.0432C70.4769 66.8801 70.9195 66.7013 71.3034 66.5226C72.1995 66.1063 72.7801 65.6985 73.0416 65.5161C73.14 65.4477 73.1952 65.4105 73.2024 65.4177C73.2408 65.4549 73.2695 65.5869 73.2348 65.7476C73.2 65.912 73.0992 66.1051 72.8761 66.2611C73.2252 66.2659 73.5143 66.2958 73.8825 66.4038C74.0685 66.459 74.2736 66.531 74.5171 66.6317C74.6011 66.6665 74.6923 66.7073 74.787 66.7505C75.3401 67.0012 75.7983 67.1752 76.1102 66.982C76.1678 66.9472 76.2218 66.9028 76.2685 66.8405C76.3573 66.7229 76.3417 66.6437 76.3189 66.5886C76.2134 66.3318 75.5332 65.8412 74.8326 65.7956"/>
<path d="M70.9786 20.8642C70.7231 21.013 70.56 21.3021 70.6116 21.512C70.6644 21.7208 70.9151 21.7687 71.1694 21.62C71.1874 21.6092 71.2018 21.5936 71.2186 21.5816C71.101 21.5372 71.0098 21.4401 70.9726 21.2949C70.9367 21.1533 70.9619 20.995 71.0254 20.8463C71.0086 20.8535 70.9954 20.8546 70.9786 20.8642Z"/>
<path d="M74.2428 49.6362C72.7085 48.3886 70.9439 47.297 69.8415 45.6464C68.829 44.1313 68.1477 42.4279 67.3247 40.8096C66.683 39.55 66.2259 38.6203 65.7617 37.7854C65.7257 37.7206 65.6897 37.6547 65.6537 37.5911C65.457 37.7038 65.1919 37.6906 64.9183 37.5779C64.676 37.4759 64.4289 37.2948 64.2142 37.0441C64.2034 37.0309 64.1914 37.0213 64.1818 37.0093C63.6912 36.4131 63.5904 35.6861 63.9551 35.3862C64.0019 35.3478 64.057 35.3202 64.1134 35.2998C62.855 33.69 61.4407 33.0422 59.7781 33.0818C59.6065 33.0866 59.4386 33.0926 59.2706 33.0998C58.9516 33.113 58.6421 33.1286 58.3386 33.143C57.2097 33.1969 56.2009 33.2233 55.4067 32.9186C55.4067 32.9186 55.7354 33.7764 57.8455 33.8915C57.9115 33.8951 57.9751 33.8999 58.0447 33.9023C58.0687 33.9023 58.0914 33.9059 58.1166 33.9071C58.1106 33.9095 58.1034 33.9107 58.0974 33.9119C57.9283 33.9803 57.7951 34.0787 57.6884 34.1818C57.4497 34.4097 57.3513 34.6593 57.3513 34.6593C57.3513 34.6593 57.3777 34.6784 57.4161 34.7036C57.542 34.7888 57.8467 34.9891 58.203 35.1895C58.311 35.2495 58.4225 35.3094 58.5353 35.367C59.1327 35.6645 60.072 35.1103 60.072 35.1103C60.072 35.1103 59.7457 35.2003 59.3306 35.1823C59.423 35.1355 59.4938 35.0611 59.5106 34.9496C59.5513 34.6737 59.3042 34.321 58.9551 34.1626C58.9336 34.153 58.9144 34.1518 58.8928 34.1446C58.9935 34.3282 59.0463 34.5297 59.0187 34.7168C58.9923 34.8884 58.9024 35.0119 58.78 35.0887C58.6205 35.0383 58.4621 34.9628 58.3134 34.8536C58.1706 34.748 58.0375 34.6113 57.9259 34.4349C58.1286 34.159 58.3997 34.0163 58.6469 33.9371C58.6696 33.9383 58.69 33.9419 58.7128 33.9443C59.1363 33.9815 59.5609 34.0427 59.9736 34.1494C61.7874 34.6209 62.6955 35.9884 62.9558 37.7854C63.4188 40.9895 62.5983 44.5319 64.057 47.5177C63.8447 46.3793 63.7247 44.4816 64.0846 42.9545C64.9423 48.403 67.9293 51.4284 69.2837 52.0906C70.1834 52.5297 70.7508 53.4545 69.9459 54.2811C69.1481 55.1016 68.27 55.783 67.7722 56.841C67.6174 57.1721 67.5023 57.5188 67.4015 57.8691C67.3883 56.8866 67.4675 55.9029 67.723 55.1316C66.437 57.2093 66.6326 60.4362 66.7873 61.7917C66.5546 63.1881 66.022 64.9743 64.5189 66.6177C66.2799 66.4246 67.9017 65.069 69.2057 63.5672C70.1342 61.8349 71.3314 59.3722 71.9216 57.2225C71.8328 58.5744 71.5833 59.7632 71.3014 60.7337C71.6625 60.1771 71.9396 59.72 72.1183 59.4465C72.7097 58.5492 73.2376 57.4852 73.1368 56.3804C73.078 55.7458 72.7841 55.0488 73.102 54.437C73.4643 53.7401 74.1457 54.0543 74.5835 54.5186C75.0945 55.062 75.5624 55.6318 76.1658 56.1081C76.9047 56.6911 77.8452 57.1361 79.3279 57.2249C81.354 57.3484 82.5776 56.3036 85.7901 56.0385C83.5541 54.3027 80.8502 54.5342 78.5974 53.1211C76.9755 52.1026 75.7111 50.8322 74.2416 49.6374"/>
<path d="M97.553 67.7486C96.8261 66.1495 95.6649 64.9775 93.8955 64.061C93.4552 63.8331 93.0413 63.7048 92.7091 63.6016C92.0037 63.3833 91.8753 63.3437 92.0709 61.5659C92.3708 58.8488 91.0848 56.3944 88.4529 54.655C86.9834 53.6821 85.3375 53.2143 83.7445 52.762C82.8928 52.5197 82.089 52.2918 81.3297 51.9943C80.9818 51.8587 80.6387 51.7088 80.2944 51.5541C79.5075 51.2002 78.7026 50.7563 77.9648 50.2717C77.1839 49.7583 76.4917 49.21 75.9207 48.6558C75.9171 48.651 75.8883 48.6246 75.8859 48.621C75.6376 48.3787 75.3845 48.116 75.0918 47.7933C75.0174 45.6808 75.3881 43.4964 75.7468 41.3791C76.0167 39.7932 76.2698 38.2973 76.3334 36.8734C76.3861 35.6774 76.3058 34.389 76.0922 33.0455C75.9759 32.3125 75.7564 31.5652 75.544 30.8442C74.9454 28.8121 74.6407 27.5009 75.4445 26.4345C75.52 26.3325 75.6172 26.2413 75.7947 26.0782C75.8667 26.0122 75.9411 25.9426 76.0203 25.8671C77.3506 24.5967 78.0992 23.2783 78.2455 21.948C78.2623 21.7908 78.2719 21.6469 78.2779 21.5173C78.561 21.0399 78.6918 20.4653 78.6246 19.9363C78.5682 19.4816 78.3727 19.0797 78.0608 18.7751C77.7273 18.45 77.2798 18.2568 76.7688 18.216C76.5769 18.2004 76.3921 18.2316 76.223 18.3024C76.0802 18.2712 75.9303 18.2676 75.7827 18.2916C75.6244 18.318 75.4649 18.3348 75.3017 18.3456C75.1734 18.3528 75.0426 18.3576 74.907 18.3576H74.7655C74.5256 18.3516 74.2713 18.3372 73.9929 18.3144C73.4231 18.2676 72.7526 18.1848 71.9032 18.0817L71.8301 18.0733C71.0875 17.9821 70.2058 17.8885 69.2965 17.8885C68.3872 17.8885 67.6183 17.9761 66.8721 18.1561C64.2966 18.7762 62.3473 20.5277 61.5243 22.964C61.1693 24.0161 60.9989 25.0765 60.8346 26.1022C60.7422 26.6804 60.6546 27.2262 60.5371 27.7648C60.4471 28.1775 60.1412 28.9416 59.1959 30.2468C58.9752 30.5515 58.7269 30.8754 58.4546 31.2137C58.1511 31.2521 57.82 31.2725 57.4661 31.2761H57.3497C57.1962 31.2761 57.045 31.2737 56.9011 31.2677C56.8087 31.2641 56.7164 31.2605 56.6264 31.2557C56.4476 31.2449 56.2761 31.2329 56.1166 31.2173C55.6547 31.1741 55.2888 31.1213 55.0549 31.0853C54.8966 31.0601 54.7406 31.0301 54.5907 30.9953C54.5103 30.9762 54.4287 30.9666 54.3483 30.9654C54.28 30.9246 54.2068 30.891 54.13 30.8634L54.082 30.849C53.6298 30.6859 53.1943 30.6679 52.8081 30.7926C52.3702 30.9354 52.0211 31.2521 51.8232 31.6863C51.774 31.7979 51.7344 31.907 51.7056 32.0066C51.6732 32.1194 51.6528 32.2309 51.6385 32.3353C51.6121 32.5488 51.6181 32.766 51.6553 32.9891C51.672 33.0874 51.696 33.1834 51.726 33.2782C51.7608 33.3921 51.8064 33.5037 51.8688 33.6321C51.5725 34.1347 51.4657 34.6973 51.5569 35.2731C51.8136 36.8878 53.5938 38.1785 54.8054 39.0422C54.6458 40.2203 53.7797 41.1703 53.2303 41.6646C52.2443 42.5511 51.0063 43.2972 49.9134 43.957L49.8019 44.023C49.1025 44.4452 48.3792 44.8807 47.6954 45.3485C46.6589 46.0563 45.7676 46.7245 44.9711 47.389C43.3552 48.7374 42.0729 50.1217 41.0472 51.6236C40.7149 52.1107 40.4282 52.6337 40.1955 53.1819C39.5465 54.7018 39.3018 56.4268 39.4841 58.171C39.5069 58.3846 39.5321 58.6017 39.5597 58.82C39.7984 60.7945 39.7984 61.7242 38.7728 62.3192C38.6924 62.3648 38.4033 62.48 38.1706 62.5735C36.5091 63.2417 33.0507 64.6345 31.8691 67.8254C31.7 68.2872 31.8319 68.8055 32.2026 69.1269C32.5733 69.4484 33.1047 69.5072 33.5377 69.2745C34.8465 68.5691 35.8494 68.4228 36.9542 68.4228C37.2193 68.4228 37.4796 68.43 37.7387 68.4384C38.017 68.4468 38.2929 68.4552 38.5712 68.4552C39.267 68.4552 39.8248 68.4048 40.379 68.2896C41.4935 68.0605 42.4303 67.5663 43.1213 66.8837C43.7079 67.757 44.5212 68.412 45.5325 68.8067C46.5786 69.2145 47.7889 69.3597 49.0689 69.2349C49.4516 69.1965 49.8079 69.1209 50.1546 69.0478C50.662 68.9398 51.143 68.8462 51.4849 68.9086C51.7608 68.9602 52.0319 69.0142 52.303 69.0682C53.3863 69.2829 54.5091 69.5048 55.6739 69.5048C56.4081 69.5048 57.0858 69.4184 57.7504 69.2397C58.2446 69.1078 58.6813 68.9782 59.0952 68.8426C59.8977 69.109 60.6942 69.3297 61.468 69.5036C62.8787 69.8179 64.2678 69.9847 65.597 69.9991H65.7913C67.364 70.0003 68.8575 69.7891 70.2322 69.3705C70.7648 69.2085 71.2927 69.0058 71.8385 68.7539C72.4935 68.869 73.1748 68.9482 73.9078 68.9926C73.945 68.9938 73.9977 68.9974 74.0625 68.9974H74.2497C74.3972 69.0562 74.5628 69.1174 74.7403 69.1725C75.099 69.2805 75.4361 69.3357 75.8043 69.3393C76.6237 69.3393 77.3542 69.0214 77.8952 68.4348C78.8897 69.0466 80.0785 69.3657 81.3909 69.3657C82.041 69.3657 82.702 69.2853 83.351 69.1257C84.5554 68.8306 85.6794 68.2776 86.5971 67.5243C86.6931 67.4463 86.789 67.3623 86.8814 67.2796L86.981 67.1932C87.1705 67.0241 87.3505 66.8621 87.5124 66.7577C87.642 66.6738 87.7007 66.6462 87.7895 66.6726C87.8555 66.6906 88.0042 66.8669 88.1242 67.0085C88.2418 67.1488 88.3617 67.288 88.4949 67.4211C89.0923 68.0137 89.8156 68.4588 90.6446 68.7419C91.4315 69.0082 92.1692 69.043 92.7271 69.043C92.997 69.043 93.2657 69.0346 93.5368 69.0238C93.7815 69.0142 94.0262 69.0046 94.2721 69.0046C95.0099 69.0046 95.5065 69.0946 95.9888 69.3117C96.4362 69.5144 96.9628 69.4172 97.3095 69.0694C97.6562 68.7203 97.751 68.1937 97.5482 67.7474M91.0236 67.6227C90.3866 67.4055 89.8036 67.0588 89.3262 66.5826C88.9351 66.1939 88.6796 65.6973 88.1122 65.5366C87.1501 65.2642 86.5131 66.068 85.8522 66.6102C85.0436 67.2724 84.084 67.7318 83.0715 67.9801C81.2493 68.4276 79.1776 68.1889 77.7681 66.8585C79.4823 67.1848 82.0231 66.5826 82.702 64.776C81.1377 65.1731 79.0349 65.4778 77.0195 65.1947C77.1035 65.4034 77.1455 65.6277 77.1575 65.858C77.2307 65.9576 77.2894 66.062 77.3338 66.1699C77.515 66.6102 77.4454 67.096 77.1431 67.4967C76.8096 67.9369 76.3406 68.1649 75.7827 68.1589C75.2945 68.1529 74.8375 67.9693 74.474 67.8074C74.3108 67.8146 74.1681 67.8182 74.0733 67.817C74.0349 67.817 74.0025 67.8158 73.9798 67.8134C73.2072 67.7666 72.4359 67.6754 71.6777 67.5219C71.1139 67.8002 70.5213 68.0485 69.8879 68.2404C68.5732 68.6411 67.1325 68.8342 65.609 68.8175C64.3602 68.8043 63.0538 68.6459 61.7235 68.3496C60.867 68.1589 59.9829 67.9046 59.094 67.5951C58.5901 67.7714 58.0599 67.9333 57.4421 68.1001C55.4844 68.6255 53.6454 68.1073 51.6984 67.7486C50.7807 67.5783 49.8594 67.9705 48.9526 68.0593C47.9461 68.1577 46.9072 68.0749 45.9596 67.7066C44.1542 67.0037 43.366 65.2954 43.2365 63.4589C43.384 65.1731 42.2204 66.705 40.1391 67.1332C37.8275 67.6095 36.0365 66.5826 32.9751 68.2344C34.1987 64.9284 38.5736 63.7971 39.3618 63.3377C41.3855 62.1609 40.8565 59.9668 40.6549 58.0451C40.5002 56.572 40.6789 55.0461 41.2775 53.6425C41.4767 53.1747 41.7238 52.7213 42.0189 52.2882C43.6947 49.8326 45.9236 47.9876 48.3588 46.3214C50.2001 45.0618 52.3546 44.0362 54.0173 42.5403C54.9469 41.7042 56.101 40.2514 56.0026 38.4508C54.8954 37.6195 51.7728 35.7206 52.9724 34.0951C53.9573 34.9252 54.8342 35.068 55.2636 34.9924C53.7941 34.3746 53.3131 33.6956 53.078 33.3658C53.0588 33.3394 53.0408 33.3118 53.024 33.2842C52.9916 33.235 52.9628 33.1846 52.9376 33.133C52.9028 33.0647 52.8728 32.9975 52.85 32.9255C52.8368 32.8787 52.8237 32.8307 52.8153 32.7815C52.7985 32.6844 52.7949 32.5848 52.8081 32.4816C52.8141 32.4313 52.8249 32.3797 52.8405 32.3281C52.8536 32.2753 52.874 32.2225 52.898 32.1698C52.9544 32.0462 53.042 31.955 53.1703 31.913C53.2975 31.8723 53.4654 31.8807 53.6802 31.9574C53.7006 31.9646 53.721 31.9706 53.7425 31.9778C53.7281 32.015 53.7138 32.0522 53.7042 32.0918C53.6286 32.3653 53.6634 32.6868 54.0077 32.9867C53.9849 32.9087 53.9789 32.8319 53.9873 32.7564C54.0017 32.6052 54.0712 32.4613 54.166 32.3305C54.2128 32.2645 54.2668 32.2021 54.3232 32.1434C54.5007 32.1841 54.6842 32.2189 54.8702 32.2489C55.4292 32.3365 57.4085 32.6292 59.082 32.3065C60.7146 30.3344 61.4788 28.9668 61.6875 28.0155C62.027 26.4597 62.1265 24.857 62.64 23.3407C63.3477 21.2474 65.026 19.8139 67.1456 19.3029C68.6391 18.943 70.1746 19.0594 71.6837 19.2429C72.5714 19.3509 73.2828 19.4384 73.8934 19.4888C74.1981 19.5152 74.4776 19.5296 74.7415 19.5344C75.1818 19.5416 75.5764 19.5188 75.9711 19.454L75.9831 19.4648C76.0838 19.5488 76.1774 19.64 76.2554 19.7431C76.3358 19.8487 76.3957 19.9639 76.4221 20.0886C76.4305 20.1294 76.4353 20.1714 76.4365 20.2146C76.4365 20.2578 76.4341 20.3009 76.4245 20.3453C76.4653 20.3021 76.5013 20.2602 76.5325 20.217C76.6261 20.0898 76.68 19.9651 76.7052 19.8439C76.722 19.7635 76.7256 19.6843 76.7184 19.6088C76.7124 19.5332 76.6956 19.4612 76.6716 19.3904C76.9236 19.4108 77.1083 19.4948 77.2343 19.6172C77.3602 19.7407 77.4274 19.9039 77.4502 20.0802C77.4946 20.4341 77.353 20.8444 77.1143 21.1119C77.0975 21.2846 77.1011 21.5233 77.0687 21.8172C76.9308 23.0744 76.0898 24.1612 75.2021 25.0106C74.9118 25.2877 74.6923 25.4628 74.498 25.7219C72.8233 27.9472 74.54 30.813 74.9238 33.2302C75.111 34.4082 75.2045 35.627 75.1506 36.8206C74.9994 40.1759 73.6811 44.2989 73.9306 48.2707C74.2976 48.6846 74.6695 49.0877 75.0582 49.4667C75.0666 49.4751 75.075 49.4835 75.0834 49.4907C76.3981 50.7683 78.1412 51.8815 79.8086 52.6313C80.1697 52.7944 80.532 52.9492 80.8966 53.0931C83.1591 53.9796 85.7418 54.2795 87.7991 55.6399C89.7413 56.9234 91.1748 58.892 90.8953 61.4387C90.5054 64.9907 91.8214 64.3178 93.3497 65.1095C94.8779 65.9024 95.8628 66.8897 96.4758 68.2368C94.5768 67.3791 92.8158 68.232 91.026 67.6238"/>
<path d="M50.6768 57.248C51.808 56.851 53.2307 56.2812 54.3368 53.9324C55.7379 50.1344 58.2679 49.5634 58.2679 49.5634C58.2679 49.5634 57.8192 48.3794 58.2739 44.9978C58.6349 42.3143 57.9008 40.3781 56.4505 38.9662C56.7972 41.1734 55.4512 43.1948 52.2051 45.2773C47.5638 48.2547 41.4123 51.3496 42.1093 57.9318C42.1657 58.4548 43.3629 61.4526 43.2045 61.6878C44.241 60.1511 45.6193 59.1578 47.3131 58.4608C49.1725 57.6967 50.5521 56.6662 52.0839 54.9256C51.9604 55.6262 51.4709 56.5751 50.6744 57.248" />
<path d="M64.7865 34.2837C65.9717 35.3813 66.7227 36.9084 67.3992 38.3491C67.4616 38.4834 67.5252 38.6178 67.5876 38.7498C68.4705 40.6319 69.8728 44.9325 71.9709 46.228C70.8829 44.8401 70.2999 43.7953 69.4745 41.8399C69.0127 40.7447 68.678 39.3915 67.4724 36.9096C66.2668 34.4288 63.6541 31.4862 64.7601 28.5328C64.8777 30.5481 65.739 31.9612 66.7119 32.8189C65.036 29.8379 65.2736 26.4959 65.853 25.2423C66.2944 24.2874 66.8726 23.5017 67.7267 22.7759C67.2409 24.0223 67.5276 24.5645 67.5276 24.5645C67.5276 24.5645 67.7915 23.1646 68.4957 22.4304C69.1986 21.6951 69.6857 21.5319 70.0396 21.0209C70.3071 20.6322 71.5223 20.2292 72.4136 20.9921C71.683 22.2433 70.944 22.1545 70.0575 21.9134C72.1376 23.0422 72.9378 21.1373 72.9378 21.1373C72.9378 21.1373 72.8202 20.9045 72.5683 20.6922C73.5052 20.8434 74.9399 20.7414 75.6993 19.8573C73.3133 20.2244 72.3044 20.2112 70.1955 19.9797C68.0158 19.7409 66.2092 20.8026 64.9605 22.3968C65.3119 22.7267 65.3971 23.3637 65.1272 23.9611C64.8153 24.6545 64.1507 25.0312 63.6217 24.8236C63.5857 24.9244 63.5473 25.024 63.5137 25.1259C63.1719 26.166 62.8612 27.5599 62.2506 28.7991C61.1481 31.0339 60.444 31.4934 59.7818 32.3295C62.067 32.2887 63.3422 33.1728 64.2011 33.8002C64.4038 33.9478 64.5982 34.1085 64.7877 34.2837" />
<path d="M6.35885 39.0769L0.963058 38.5082C1.16579 37.5642 1.45969 36.8228 1.84356 36.2818C2.22743 35.7408 2.78045 35.2717 3.50141 34.8735C4.01843 34.5868 4.73099 34.3648 5.63789 34.2077C6.54358 34.0505 7.52485 33.9714 8.5781 33.9714C10.2707 33.9714 11.6299 34.0661 12.6555 34.2557C13.6824 34.4452 14.5377 34.8399 15.2227 35.4421C15.7025 35.8583 16.0828 36.4473 16.3611 37.2103C16.6382 37.9732 16.7773 38.7014 16.7773 39.3948V45.9002C16.7773 46.5935 16.8217 47.137 16.9093 47.5304C16.9969 47.9239 17.1888 48.4253 17.4851 49.0347H12.1865C11.9742 48.6556 11.835 48.3677 11.7702 48.1674C11.7055 47.9683 11.6407 47.6564 11.5771 47.2305C10.8369 47.9419 10.1016 48.4505 9.37103 48.7564C8.37297 49.1631 7.21176 49.367 5.8898 49.367C4.13359 49.367 2.79964 48.9591 1.88795 48.1458C0.977453 47.3325 0.521606 46.3284 0.521606 45.136C0.521606 44.0168 0.849096 43.0967 1.50648 42.3757C2.16266 41.6548 3.37425 41.1186 5.14126 40.7671C7.25854 40.3412 8.63088 40.0437 9.26067 39.8722C9.88926 39.7006 10.555 39.4775 11.258 39.1992C11.258 38.5058 11.114 38.02 10.8273 37.7429C10.5406 37.4658 10.0368 37.3266 9.31585 37.3266C8.39096 37.3266 7.6964 37.4742 7.23455 37.7693C6.87347 38.0008 6.58197 38.4351 6.36125 39.0733M11.258 42.0423C10.4807 42.3194 9.67213 42.5653 8.83122 42.7776C7.6844 43.0835 6.95864 43.3834 6.65275 43.6797C6.33845 43.9856 6.18131 44.3311 6.18131 44.7198C6.18131 45.1636 6.33605 45.5271 6.64675 45.809C6.95625 46.0909 7.41089 46.2313 8.01309 46.2313C8.61529 46.2313 9.22708 46.0789 9.7681 45.773C10.3091 45.4671 10.693 45.0952 10.9185 44.6562C11.1452 44.2171 11.258 43.6461 11.258 42.9432V42.0411V42.0423Z" />
<path d="M26.0125 28.6985H20.354V49.0329H26.0125V28.6985Z" />
<path d="M36.4303 28.6985V34.3031H39.5373V38.4357H36.4303V43.6551C36.4303 44.2837 36.4903 44.6976 36.6103 44.9015C36.795 45.2146 37.1189 45.3717 37.5807 45.3717C37.997 45.3717 38.58 45.2518 39.3286 45.0119L39.7448 48.9094C38.3485 49.2141 37.0445 49.3676 35.8329 49.3676C34.427 49.3676 33.3906 49.1865 32.726 48.8266C32.0602 48.4655 31.5672 47.9197 31.2481 47.1855C30.9302 46.4514 30.7694 45.2614 30.7694 43.6179V38.4369H28.6893V34.3043H30.7694V31.5992L36.4291 28.6997L36.4303 28.6985Z" />
<path d="M13.191 10.8349H16.779V15.6825C17.1329 15.2759 17.5372 14.9712 17.9882 14.7672C18.4381 14.5633 18.9383 14.4613 19.4853 14.4613C20.6141 14.4613 21.5474 14.9052 22.2864 15.7929C23.0253 16.6806 23.3948 17.9546 23.3948 19.6148C23.3948 20.7208 23.2257 21.6961 22.8886 22.5394C22.5515 23.3827 22.0837 24.0125 21.4875 24.4288C20.8901 24.845 20.2291 25.0538 19.5009 25.0538C18.8783 25.0538 18.3085 24.9074 17.7903 24.6135C17.4004 24.3856 16.9758 23.9549 16.5163 23.3251V24.8222H13.191V10.8337V10.8349ZM16.7514 19.7276C16.7514 20.5985 16.9002 21.2306 17.2013 21.6217C17.5012 22.014 17.8803 22.2083 18.3409 22.2083C18.7656 22.2083 19.1218 22.0164 19.4098 21.6313C19.6977 21.2462 19.8428 20.5985 19.8428 19.6892C19.8428 18.8878 19.7013 18.3 19.4194 17.9246C19.1374 17.5491 18.7944 17.3619 18.3937 17.3619C17.9115 17.3619 17.5168 17.5575 17.2109 17.9486C16.905 18.3408 16.7526 18.9322 16.7526 19.7276" />
<path d="M28.3329 17.9784L24.9368 17.5861C25.0652 16.9371 25.2499 16.4273 25.4922 16.0542C25.7334 15.6823 26.0812 15.3596 26.5347 15.0861C26.861 14.8894 27.3084 14.7359 27.8782 14.6279C28.4481 14.5199 29.0646 14.4659 29.7292 14.4659C30.7933 14.4659 31.6486 14.5307 32.294 14.6615C32.9405 14.7922 33.478 15.0633 33.9086 15.4772C34.2109 15.7627 34.4496 16.1682 34.6248 16.6936C34.7999 17.219 34.8863 17.7193 34.8863 18.1967V22.6712C34.8863 23.1486 34.9139 23.5217 34.9691 23.7916C35.0242 24.0627 35.1454 24.407 35.3313 24.8269H31.9965C31.8633 24.5654 31.7757 24.3662 31.735 24.2295C31.6942 24.0927 31.6534 23.8792 31.6138 23.5853C31.1483 24.0759 30.6853 24.425 30.2259 24.6349C29.5973 24.9144 28.8667 25.0548 28.0342 25.0548C26.9282 25.0548 26.0884 24.7741 25.5162 24.2151C24.9428 23.6561 24.6561 22.9651 24.6561 22.1446C24.6561 21.3756 24.8625 20.7422 25.2763 20.2456C25.689 19.7502 26.4519 19.3819 27.564 19.1396C28.8967 18.8469 29.7592 18.6417 30.1563 18.5242C30.5521 18.4066 30.9708 18.2519 31.4135 18.0611C31.4135 17.5837 31.3223 17.249 31.1424 17.0583C30.9624 16.8687 30.6445 16.7728 30.1923 16.7728C29.6093 16.7728 29.1738 16.8747 28.8823 17.0787C28.6556 17.2382 28.472 17.5369 28.3329 17.976M31.4147 20.0177C30.9264 20.2072 30.4166 20.3764 29.8864 20.5227C29.1654 20.7326 28.7084 20.939 28.5152 21.1429C28.3185 21.3528 28.2189 21.5916 28.2189 21.8591C28.2189 22.165 28.3161 22.4145 28.5116 22.6076C28.706 22.8019 28.9927 22.8991 29.3717 22.8991C29.7508 22.8991 30.1347 22.7947 30.4754 22.5848C30.8161 22.3749 31.0584 22.1182 31.1999 21.8171C31.3415 21.5148 31.4135 21.1213 31.4135 20.6379V20.0177H31.4147Z" />
<path d="M36.3891 22.0172L39.9159 21.6549C40.0611 22.1132 40.265 22.4406 40.5265 22.6386C40.788 22.8353 41.1371 22.9337 41.5738 22.9337C42.0512 22.9337 42.4207 22.8233 42.6822 22.6002C42.8861 22.4346 42.9881 22.2283 42.9881 21.9812C42.9881 21.7029 42.8537 21.4858 42.5862 21.3322C42.3943 21.2243 41.8845 21.0911 41.058 20.9327C39.8248 20.6976 38.9683 20.4805 38.4872 20.2802C38.0074 20.0798 37.6031 19.7416 37.2744 19.2653C36.9445 18.7891 36.7802 18.2445 36.7802 17.6351C36.7802 16.9681 36.9577 16.3923 37.3128 15.91C37.6667 15.4266 38.1561 15.0667 38.7787 14.828C39.4025 14.5893 40.2362 14.4705 41.2847 14.4705C42.3895 14.4705 43.2064 14.5629 43.7331 14.7464C44.2597 14.9312 44.6987 15.2179 45.0514 15.6053C45.4029 15.994 45.6968 16.5182 45.9295 17.1804L42.5598 17.5427C42.4723 17.2188 42.3283 16.9801 42.1232 16.8265C41.8449 16.6226 41.5066 16.5218 41.1107 16.5218C40.7149 16.5218 40.4174 16.5986 40.2338 16.7558C40.0503 16.9117 39.9579 17.1 39.9579 17.322C39.9579 17.5703 40.0743 17.7574 40.307 17.8834C40.5397 18.0117 41.046 18.1245 41.8257 18.2265C43.0073 18.3728 43.8854 18.5767 44.4624 18.8371C45.0382 19.0986 45.4785 19.4692 45.7844 19.9527C46.0903 20.4361 46.2426 20.9663 46.2426 21.5445C46.2426 22.1228 46.0819 22.6986 45.758 23.2504C45.4353 23.8034 44.9255 24.2436 44.2297 24.5711C43.5339 24.8974 42.5874 25.0618 41.389 25.0618C39.6952 25.0618 38.4896 24.7979 37.7711 24.27C37.0525 23.7422 36.5907 22.9913 36.3867 22.0184" />
<path d="M58.2271 20.7288H51.1051C51.1687 21.3526 51.3222 21.8157 51.5669 22.1228C51.9112 22.5606 52.3587 22.7813 52.9117 22.7813C53.2608 22.7813 53.5931 22.6854 53.9061 22.4946C54.0981 22.3735 54.3044 22.1611 54.5251 21.8552L58.0268 22.2091C57.4905 23.2276 56.8452 23.9569 56.0882 24.3984C55.3313 24.841 54.2456 25.0618 52.8313 25.0618C51.6041 25.0618 50.6372 24.8722 49.9331 24.4944C49.2301 24.1165 48.6459 23.5143 48.1841 22.6914C47.721 21.8672 47.4895 20.8992 47.4895 19.7859C47.4895 18.2013 47.9537 16.9201 48.8822 15.94C49.8107 14.9612 51.0919 14.4705 52.7269 14.4705C54.0525 14.4705 55.101 14.69 55.8687 15.1291C56.6364 15.567 57.2218 16.2039 57.6237 17.0377C58.0256 17.8714 58.2247 18.9558 58.2247 20.291V20.73L58.2271 20.7288ZM54.6139 18.8682C54.5443 18.1173 54.3596 17.5799 54.0597 17.256C53.7598 16.9309 53.3663 16.7689 52.8769 16.7689C52.3119 16.7689 51.8608 17.0137 51.5237 17.5031C51.309 17.809 51.1723 18.2636 51.1147 18.867H54.6139V18.8682Z" />
</svg>
