<svg width="173" height="40" viewBox="0 0 173 40" fill="currentColor" xmlns="http://www.w3.org/2000/svg">
<path d="M0.653687 39.5044L6.84533 0.388916H16.2802L22.4719 39.5044H16.4768L15.3957 32.4282H7.82813L6.74705 39.5044H0.653687ZM8.61437 27.1211H14.5112L11.5628 7.46508L8.61437 27.1211Z" />
<path d="M24.0443 39.5044L30.9239 19.357L24.4374 0.388916H30.5308L35.15 14.8361L39.8674 0.388916H45.2728L38.8846 19.5535L45.7642 39.5044H39.6708L34.9534 24.9589L30.1377 39.5044H24.0443Z" />
<path d="M48.4176 39.5044V0.388916H54.511V39.5044H48.4176Z" />
<path d="M57.3611 30.172V9.82801C57.3611 6.68305 58.1474 4.32432 59.8181 2.55528C61.3906 0.884521 63.7494 0 66.6978 0C69.7444 0 72.0049 0.884521 73.5774 2.55528C75.1498 4.22604 75.9361 6.68305 75.9361 9.82801V30.172C75.9361 33.317 75.1498 35.6757 73.5774 37.4447C72.0049 39.1155 69.6462 40 66.6978 40C63.6511 40 61.3906 39.1155 59.8181 37.4447C58.2457 35.6757 57.3611 33.317 57.3611 30.172ZM63.5528 30.5651C63.5528 33.1204 64.6339 34.398 66.796 34.398C68.9582 34.398 69.941 33.1204 69.941 30.5651V9.43489C69.941 6.87961 68.8599 5.60197 66.796 5.60197C64.6339 5.60197 63.5528 6.87961 63.5528 9.43489V30.5651Z" />
<path d="M78.8837 39.5044V0.388916H87.4341L91.955 28.2022L96.181 0.388916H105.026V39.5044H98.9329V11.4946L94.7068 39.5044H88.9083L84.2891 11.986V39.6027H78.8837V39.5044Z" />
<path d="M116.035 39.5044V33.9024C116.526 33.9024 117.214 34.0007 118.197 34.0007C119.278 34.0007 120.163 33.7059 120.752 33.2145C121.342 32.6248 121.637 31.7403 121.637 30.2661V0.388916H127.73V29.7747C127.73 36.3594 124.782 39.6027 118.885 39.6027C117.706 39.6027 116.723 39.6027 116.035 39.5044Z" />
<path d="M130.875 39.5044V0.388916H140.605C143.651 0.388916 145.912 1.17516 147.484 2.84592C149.057 4.51668 149.745 6.8754 149.745 10.0204V29.7747C149.745 32.9196 148.959 35.2784 147.484 36.9491C145.912 38.6199 143.651 39.4061 140.605 39.4061H130.875V39.5044ZM137.067 33.9024H140.506C141.489 33.9024 142.276 33.6076 142.865 33.0179C143.357 32.4282 143.651 31.4454 143.651 30.0695V9.82381C143.651 8.44788 143.357 7.46508 142.865 6.8754C142.374 6.28572 141.588 5.99088 140.506 5.99088H137.067V33.9024Z" />
<path d="M152.595 39.5044V0.388916H158.688V17.3914L166.747 0.388916H172.84L164.29 17.7845L172.84 39.5044H166.55L160.555 23.9761L158.688 27.5142V39.5044H152.595Z" />
</svg>
