<svg width="126" height="40" viewBox="0 0 126 40" fill="currentColor" xmlns="http://www.w3.org/2000/svg">
<g mask="url(#mask0_1_1958)">
<path d="M25.3159 19.8681C25.3159 19.1822 25.2304 18.4993 25.0624 17.8364C24.1152 14.1102 20.7178 11.507 16.8019 11.507H0.258545V39.9202H16.8034C17.0346 39.9202 17.2644 39.9116 17.484 39.8942C21.1303 39.6105 24.1771 37.0767 25.0624 33.5907C25.2304 32.9295 25.3159 32.245 25.3159 31.5591C25.3159 29.3755 24.4363 27.2699 22.8894 25.7143C24.4378 24.1573 25.3159 22.0533 25.3159 19.8681ZM15.1253 33.805H7.42158V30.2915V29.4753H15.1901C16.4424 29.4753 17.4531 30.5056 17.3912 31.7486C17.3322 32.9121 16.3113 33.805 15.1253 33.805ZM15.1901 22.2225H7.42158V17.893H15.1901C16.4056 17.893 17.3941 18.8639 17.3941 20.0577C17.3941 21.2516 16.4056 22.2225 15.1901 22.2225Z" />
<path d="M59.6083 39.9201H51.2299L43.4657 27.3161L47.6454 20.5177L59.6083 39.9201ZM41.7862 11.0278L45.9497 17.7697L32.2439 39.9201H23.8654L41.7862 11.0278Z" />
<path d="M51.15 9.14551H42.7716L48.5011 0.144707L56.8988 0L51.15 9.14551Z" />
<path d="M55.6213 20.5384C55.6213 24.9939 59.4252 29.312 64.6303 29.2324H75.5133C76.5388 29.2324 77.3726 30.0515 77.3726 31.0587C77.3726 32.0658 76.5388 32.8849 75.5133 32.8849H58.7814L62.9066 39.9204C65.5187 39.906 71.0773 39.9204 75.7609 39.9204C79.1391 39.9204 84.2823 37.2014 84.2823 31.1295C84.2823 25.295 80.5564 23.2024 77.8765 22.5035C76.3679 21.916 66.7695 22.298 65.0089 22.1953C63.9835 22.1953 62.7725 21.7264 62.7725 20.3691C62.7725 19.3026 63.4812 18.5429 65.0089 18.5429C65.8369 18.5429 80.851 18.5313 82.0606 18.5429V11.7257H64.3754C59.5417 11.7257 55.6213 15.4924 55.6213 20.5384Z" />
<path d="M94.0536 11.7257H86.8905V39.9219H94.0536V11.7257Z" />
<path d="M96.8627 20.6183C96.8627 25.0738 100.667 29.3919 105.872 29.3123H116.753C117.779 29.3123 118.613 30.1313 118.613 31.1385C118.613 32.1456 117.779 32.9647 116.753 32.9647H96.8627V40.0004C99.4762 39.9859 112.317 40.0004 117.001 40.0004C120.379 40.0004 125.522 37.2813 125.522 31.2093C125.522 25.3748 121.796 23.2823 119.116 22.5833C117.608 21.9959 108.01 22.3779 106.249 22.2751C105.224 22.2751 104.012 21.8063 104.012 20.4489C104.012 19.3825 104.723 18.6227 106.249 18.6227C107.077 18.6227 122.093 18.6111 123.3 18.6227V11.8055H105.617C100.782 11.8055 96.8627 15.5723 96.8627 20.6183Z" />
</g>
</svg>
