<svg width="152" height="40" viewBox="0 0 152 40" fill="currentColor" xmlns="http://www.w3.org/2000/svg">
<path d="M49.6034 20.0114C49.6034 17.2315 49.6068 14.4516 49.5977 11.6724C49.5965 11.4128 49.6393 11.3244 49.9279 11.325C54.8779 11.3353 59.828 11.3347 64.778 11.3267C65.0335 11.3267 65.1065 11.386 65.1059 11.6495C65.0979 17.2372 65.0979 22.8254 65.1054 28.4131C65.1054 28.6544 65.0375 28.7097 64.8048 28.7068C63.7502 28.6943 62.6956 28.692 61.6411 28.708C61.373 28.712 61.2937 28.6527 61.2949 28.3703C61.3051 23.9496 61.3017 19.5283 61.3017 15.1075C61.3017 14.8596 61.1753 14.7355 60.9224 14.7351C58.5093 14.7351 56.0956 14.7391 53.6825 14.7294C53.4344 14.7283 53.3677 14.7847 53.3682 15.0397C53.3768 19.4889 53.3717 23.9388 53.3808 28.388C53.3808 28.6561 53.3026 28.7114 53.0511 28.7086C51.9965 28.6949 50.942 28.6937 49.8874 28.7086C49.6399 28.712 49.5977 28.6344 49.5988 28.4074C49.6068 25.6087 49.604 22.81 49.604 20.0114H49.6034Z" />
<path d="M23.4927 18.473C19.4051 21.9846 15.3665 25.4535 11.3142 28.9343C11.244 28.8259 11.2662 28.7307 11.2662 28.6423C11.2657 22.989 11.268 17.3352 11.2594 11.6819C11.2594 11.3967 11.3261 11.3197 11.6153 11.3249C12.6505 11.3443 13.6862 11.3409 14.7214 11.3272C14.9712 11.3237 15.0533 11.3756 15.0528 11.646C15.0419 14.8713 15.0459 18.096 15.0459 21.3213V21.7137C19.1336 18.1553 23.1705 14.642 27.2068 11.1281C27.2975 11.1931 27.2616 11.2758 27.2616 11.3437C27.2638 17.0449 27.2627 22.7455 27.2696 28.4466C27.2696 28.6674 27.2028 28.7107 26.9969 28.7084C25.9138 28.6982 24.8308 28.6964 23.7482 28.7096C23.5247 28.7124 23.4882 28.64 23.4882 28.4375C23.4944 25.2407 23.4922 22.0445 23.4922 18.8477C23.4922 18.7451 23.4922 18.6424 23.4922 18.473H23.4927Z" />
<path d="M39.7836 28.989C35.9555 28.9947 32.6064 26.7498 31.4144 23.2576C30.2452 19.8321 30.7448 16.6473 33.1768 13.8948C34.7213 12.1467 36.7414 11.2764 39.0627 11.0973C41.4662 10.9119 43.6249 11.537 45.5093 13.0513C45.7894 13.2766 46.0352 13.5435 46.3067 13.7808C46.4344 13.8926 46.4436 13.9604 46.3152 14.0893C45.5396 14.8701 44.7707 15.6578 44.011 16.454C43.8759 16.5954 43.8166 16.5606 43.7059 16.4426C42.7038 15.3737 41.4662 14.8359 40.0009 14.768C37.5331 14.654 35.3954 16.2732 34.9032 18.6966C34.5741 20.3186 34.7549 21.8751 35.7382 23.2559C36.7443 24.6692 38.1684 25.2932 39.88 25.2846C41.3766 25.2772 42.6519 24.7314 43.6791 23.6375C43.8183 23.4892 43.8896 23.4646 44.0435 23.6266C44.7628 24.3829 45.4917 25.1301 46.2297 25.8681C46.4099 26.0483 46.4453 26.147 46.2399 26.3512C44.4941 28.0856 42.316 28.9844 39.7842 28.9879L39.7836 28.989Z" />
<path fill-rule="evenodd" clip-rule="evenodd" d="M0.0051331 39.9669L0.00514103 36.6581C0.00518459 24.5257 0.00522816 12.3937 0 0.261218C0 0.047909 0.047909 0 0.261788 0C46.4845 0.00522816 92.7067 0.00518459 138.929 0.00514102L151.535 0.0051331C151.575 0.0793068 151.57 0.157671 151.566 0.235621V0.235757V0.235893V0.23603C151.564 0.261636 151.562 0.287197 151.562 0.312549C151.563 13.4042 151.563 26.4959 151.563 39.5882C151.563 39.8593 151.428 39.9949 151.157 39.9949C100.888 39.9949 50.6192 39.9949 0.350192 39.9937C0.321757 39.9937 0.293115 39.9953 0.264418 39.9968C0.176841 40.0016 0.0887607 40.0064 0.00456276 39.9669H0.0051331ZM137.16 20.0174C137.16 20.6179 137.16 21.2183 137.16 21.8188C137.159 24.0167 137.159 26.2145 137.166 28.4123C137.167 28.661 137.107 28.7334 136.853 28.73C135.78 28.7157 134.706 28.7169 133.633 28.73C133.398 28.7328 133.332 28.6747 133.333 28.4345C133.338 27.3532 133.338 26.2716 133.339 25.1901C133.339 24.1086 133.34 23.0271 133.345 21.9457C133.346 21.6982 133.291 21.6315 133.036 21.6326C130.49 21.6434 127.943 21.6429 125.397 21.6337C125.148 21.6326 125.066 21.6822 125.067 21.9514C125.074 23.1825 125.075 24.4138 125.075 25.645C125.075 26.5768 125.076 27.5086 125.079 28.4402C125.079 28.6553 125.034 28.734 124.8 28.7311C123.708 28.7186 122.615 28.7174 121.523 28.7311C121.281 28.734 121.25 28.6439 121.251 28.4374C121.254 24.9496 121.254 21.4614 121.254 17.9735L121.254 15.8864C121.254 15.5285 121.254 15.1706 121.255 14.8128C121.255 13.7381 121.256 12.6636 121.249 11.5888C121.248 11.3795 121.297 11.3173 121.514 11.3196C122.597 11.3316 123.68 11.3322 124.763 11.3196C125.004 11.3168 125.083 11.3635 125.082 11.6259C125.075 12.7836 125.074 13.9413 125.074 15.099C125.073 16.0379 125.073 16.9768 125.069 17.9157C125.068 18.1427 125.112 18.2208 125.359 18.2197C127.925 18.21 130.49 18.21 133.055 18.2197C133.304 18.2208 133.345 18.1358 133.344 17.9122C133.34 16.907 133.34 15.9017 133.34 14.8963C133.339 13.8145 133.339 12.7327 133.334 11.651C133.333 11.4063 133.376 11.3128 133.651 11.3173C134.724 11.3356 135.798 11.3327 136.872 11.3196C137.113 11.3168 137.166 11.3898 137.165 11.6213C137.159 13.8366 137.16 16.0518 137.16 18.267L137.16 20.0174ZM96.334 11.3426C99.2422 11.3911 101.773 13.4774 102.436 16.3143L102.434 16.3148C103.257 19.835 101.018 23.3677 97.4872 24.116C97.0412 24.2107 96.5895 24.262 96.1315 24.2603C95.765 24.259 95.3985 24.2596 95.032 24.2601C94.4107 24.261 93.7893 24.2619 93.168 24.254C92.9399 24.2512 92.864 24.2962 92.8669 24.5426C92.8737 25.1647 92.8734 25.7867 92.8732 26.4087C92.8728 27.0767 92.8725 27.7446 92.8811 28.4124C92.8845 28.6845 92.7973 28.7341 92.5492 28.7307C91.5899 28.7176 90.6305 28.7187 89.6712 28.7307C89.4488 28.7335 89.3895 28.6731 89.39 28.4495C89.3964 26.2275 89.3959 24.0051 89.3954 21.7829L89.3952 20.0272V11.6049C89.3952 11.595 89.395 11.5851 89.3948 11.5753C89.3946 11.5683 89.3944 11.5613 89.3942 11.5544C89.3907 11.4257 89.3877 11.3188 89.6096 11.3203C90.4754 11.3254 91.3412 11.3243 92.207 11.3231H92.2072C93.5829 11.3213 94.9587 11.3195 96.334 11.3426ZM96.0933 20.7835C96.6636 20.7806 97.1963 20.6363 97.6868 20.3381V20.3375C98.7996 19.6605 99.3636 18.2785 99.026 17.0426C98.6638 15.7183 97.4918 14.8103 96.1401 14.8091C95.8561 14.809 95.5722 14.8093 95.2883 14.8096C94.5655 14.8105 93.8428 14.8114 93.1201 14.804C92.9199 14.8017 92.8674 14.8553 92.8697 15.0549C92.8776 15.721 92.8764 16.3873 92.8752 17.0535V17.0536C92.8747 17.2978 92.8743 17.5421 92.8743 17.7863C92.8743 18.0261 92.8747 18.2658 92.8751 18.5055V18.5056V18.5057C92.8762 19.1765 92.8773 19.8471 92.8697 20.5177C92.8674 20.7202 92.9073 20.7932 93.1304 20.7903C93.7313 20.7823 94.3325 20.7832 94.9337 20.7841C95.3202 20.7847 95.7067 20.7853 96.0933 20.7835ZM119.16 28.5033C118.064 26.2512 116.974 23.9971 115.884 21.7429L115.634 21.2252C114.923 19.7553 114.212 18.2855 113.502 16.8157C112.796 15.3562 112.09 13.8968 111.385 12.4373C111.22 12.0976 111.054 11.7589 110.879 11.4048L110.879 11.4037C110.795 11.2332 110.709 11.0592 110.621 10.8797C107.732 16.8501 104.869 22.7634 101.998 28.6938C102.013 28.6971 102.026 28.7004 102.038 28.7034C102.045 28.7052 102.052 28.707 102.058 28.7086C102.089 28.7165 102.111 28.7224 102.133 28.7224C102.462 28.7227 102.792 28.7226 103.121 28.7226C103.903 28.7224 104.685 28.7223 105.467 28.7275C105.627 28.7286 105.671 28.637 105.723 28.5273L105.727 28.5199C105.857 28.2507 105.988 27.9818 106.119 27.713C106.414 27.1064 106.71 26.4998 106.996 25.8889C107.082 25.7047 107.179 25.6448 107.378 25.6453C109.534 25.6522 111.69 25.6539 113.846 25.6436C114.073 25.6425 114.176 25.7189 114.269 25.9185C114.55 26.522 114.841 27.1209 115.132 27.7199L115.133 27.7206C115.255 27.9723 115.377 28.2239 115.499 28.476L115.502 28.4822C115.567 28.617 115.622 28.7326 115.822 28.7303C116.846 28.7199 117.871 28.7232 118.895 28.7265L119.013 28.7269C119.194 28.7275 119.254 28.6956 119.16 28.5033ZM110.533 18.5873L110.624 18.3991L111.363 19.9262C111.759 20.7439 112.151 21.5535 112.546 22.3721H108.699C109.311 21.1089 109.911 19.871 110.533 18.5873ZM2.19824 38.6458H38.5954H38.5959L41.1963 38.6457C52.4996 38.6457 63.8034 38.6457 75.1071 38.652C75.3832 38.652 75.471 38.6013 75.471 38.303C75.4625 26.1124 75.463 13.9219 75.4704 1.73132C75.4704 1.46041 75.386 1.4125 75.1379 1.4125C55.2307 1.4167 35.3235 1.41746 15.4162 1.41823C10.992 1.4184 6.56773 1.41857 2.14349 1.41877C1.93243 1.41877 1.83887 1.40484 1.79816 1.44478C1.75691 1.48525 1.76991 1.58102 1.76991 1.80262C1.76877 13.9458 1.76877 26.0885 1.76877 38.2317C1.76915 38.5077 1.91231 38.6458 2.19824 38.6458Z" />
</svg>
