<svg width="210" height="40" viewBox="0 0 210 40" fill="currentColor" xmlns="http://www.w3.org/2000/svg">
<path d="M94.4091 20.0375C94.4091 27.9925 89.5311 31.7448 83.5273 31.7448H79.85V27.0169H83.3022C86.9795 27.0169 89.381 25.0657 89.381 20.1126C89.381 15.2345 87.0545 12.758 83.1521 12.758C79.3997 12.758 76.6981 15.0844 76.6981 20.0375V40H71.6699V8.55535H76.6981V11.257H77.4485C79.0996 9.00563 81.6512 7.95497 84.2027 7.95497C89.7562 7.95497 94.4091 12.0075 94.4091 20.0375ZM61.1633 18.0113L57.7862 17.7111C55.1596 17.4859 53.7337 16.7355 53.7337 15.2345C53.7337 13.4334 55.5348 12.3827 58.0864 12.3827C60.7131 12.3827 62.4391 13.6585 62.5892 15.3846H67.4673C67.2421 10.8818 63.79 8.10507 58.1615 8.10507C52.533 8.10507 48.7056 11.1069 48.7056 15.4597C48.7056 19.137 51.032 21.4634 56.2853 21.9887L59.7375 22.2889C61.8388 22.5141 63.1896 22.8893 63.1896 24.9156C63.1896 26.7167 61.9138 27.9925 58.4617 27.9925C55.3097 27.9925 53.7337 26.5666 53.2084 24.6154H47.9551C48.4804 28.9681 52.1577 32.4203 58.4617 32.4203C64.3904 32.4203 68.2178 29.2683 68.2178 24.6904C68.2178 20.4878 65.5161 18.4615 61.1633 18.0113ZM113.996 24.5403C113.171 26.3415 111.295 27.7674 108.593 27.7674C104.916 27.7674 102.139 25.3659 102.139 20.1876C102.139 15.2345 104.691 12.4578 108.668 12.4578C112.195 12.4578 114.222 14.5591 114.372 17.7861H105.291V21.4634H119.325V19.0619C119.325 12.3827 114.897 8.03002 108.593 8.03002C102.739 8.03002 97.1108 12.0075 97.1108 20.1876C97.1108 28.3677 102.739 32.3452 108.593 32.3452C113.996 32.3452 117.824 29.0431 118.949 24.5403H113.996ZM34.2966 7.95497C28.7431 7.95497 24.6155 10.8068 24.1652 15.2345H29.5686C29.9438 13.5835 31.4448 12.3827 34.2966 12.3827C37.9739 12.3827 39.1746 14.334 39.1746 16.6604V24.6154C37.0733 26.9418 34.6718 28.0675 32.2703 28.0675C29.7937 28.0675 28.0677 26.8668 28.0677 24.6904C28.0677 22.5891 29.4185 21.3133 32.0452 21.3133H36.0977V17.636H31.8951C26.1164 17.636 22.8894 20.4878 22.8894 24.9156C22.8894 29.0431 26.0414 32.1951 31.1446 32.1951C33.9964 32.1951 36.548 31.0694 38.4241 29.6435H39.1746V31.5947H44.2027V16.2852C44.2027 10.5066 40.3003 7.95497 34.2966 7.95497ZM0.00012207 31.7448H5.02826L5.02826 0L0.00012207 0L0.00012207 31.7448ZM21.2384 8.55535H15.0846L7.72995 18.2364V21.2383L15.3097 31.7448H21.5386L12.6831 19.7373L21.2384 8.55535ZM203.903 8.55535L199.775 17.7111C198.799 19.9625 197.824 22.0638 197.524 23.5647H196.773C196.473 22.1388 195.497 20.0375 194.447 17.7861L190.394 8.55535H184.841L194.597 29.4184L189.794 39.9249H195.197L209.606 8.55535H203.903ZM183.64 8.55535H177.486L170.131 18.2364V21.2383L177.711 31.7448H183.94L175.085 19.7373L183.64 8.55535ZM152.045 18.0113L148.668 17.7111C146.041 17.4859 144.616 16.7355 144.616 15.2345C144.616 13.4334 146.417 12.3827 148.968 12.3827C151.595 12.3827 153.321 13.6585 153.471 15.3846H158.349C158.124 10.8818 154.672 8.10507 149.043 8.10507C143.415 8.10507 139.587 11.1069 139.587 15.4597C139.587 19.137 141.914 21.4634 147.167 21.9887L150.619 22.2889C152.721 22.5141 154.071 22.8893 154.071 24.9156C154.071 26.7167 152.796 27.9925 149.343 27.9925C146.191 27.9925 144.616 26.5666 144.09 24.6154H138.837C139.362 28.9681 143.04 32.4203 149.343 32.4203C155.272 32.4203 159.1 29.2683 159.1 24.6904C159.025 20.4878 156.323 18.4615 152.045 18.0113ZM162.402 31.7448H167.43V0L162.402 0V31.7448ZM129.081 11.257H128.33V8.55535H123.302V31.7448H128.33V19.6623C128.33 15.5347 130.206 13.1332 134.034 13.1332H137.261V8.03002H135.385C131.933 7.95497 130.432 9.30582 129.081 11.257Z" />
</svg>
