<svg width="134" height="50" viewBox="0 0 134 50" fill="currentColor" xmlns="http://www.w3.org/2000/svg">
<path d="M19.252 33.5914C19.252 33.5215 19.2577 33.4517 19.2748 33.3818C16.4692 31.3329 14.7378 28.0151 14.7378 24.4121C14.7378 21.3504 15.9549 18.929 18.4577 17.014L18.932 17.6601C15.8806 19.9884 15.5263 22.631 15.5263 24.4121C15.5263 27.7357 17.1149 30.8033 19.6977 32.7066C19.8748 32.5727 20.0977 32.4913 20.3376 32.4913C20.9376 32.4913 21.4176 32.986 21.4176 33.5914C21.4176 34.1967 20.9319 34.6915 20.3376 34.6915C19.7433 34.6915 19.252 34.2025 19.252 33.5914ZM10.1493 24.9185C10.1493 33.0792 16.4692 39.7614 24.3833 40.1572C24.669 40.5821 25.149 40.8615 25.6861 40.8615C26.5603 40.8615 27.2689 40.1397 27.2689 39.2491C27.2689 38.3585 26.5603 37.6368 25.6861 37.6368C24.9661 37.6368 24.3661 38.1257 24.1718 38.7951C17.0863 38.3004 11.4636 32.2643 11.4693 24.9185C11.4693 19.6158 14.5035 14.6974 19.1892 12.3865L18.612 11.1758C13.4693 13.7078 10.1493 19.1036 10.1493 24.9185ZM53.4682 13.0093H56.8966V19.8835C56.8966 23.5914 55.2795 25.1863 52.4225 25.1863C49.5654 25.1863 47.9198 23.5914 47.9198 19.8835V9.837H44.6342V20.0116C44.6342 25.2677 47.5426 28.1257 52.3939 28.1257C57.2223 28.1257 60.1309 25.2677 60.1309 20.0116V9.837H53.4682V13.0093ZM41.4171 33.3236C40.2514 33.3236 39.3085 34.2841 39.3029 35.4715C39.3029 35.7451 39.3543 36.0012 39.4457 36.2456C35.8973 40.8905 30.3203 43.5972 24.469 43.3935C14.6521 43.0443 6.97231 34.9244 6.97802 24.9069C6.98374 15.4598 13.9893 7.5844 23.0919 6.55414L23.0976 17.8696C23.0976 23.4401 27.5489 27.9685 33.0173 27.9685H41.6571V20.4424H34.4858C33.6516 20.4424 32.4402 20.1106 31.5373 19.1735C30.8288 18.4401 30.4803 17.5029 30.4973 16.3737L30.5031 0.535506C30.5031 0.535506 26.5089 0 24.9033 0C11.3664 0 0.355347 11.2165 0.355347 25C0.355347 38.7835 11.3664 50 24.8975 50C29.4288 50 33.8173 48.7427 37.6514 46.3563C37.8572 46.4377 38.0743 46.4843 38.3086 46.4843C39.3257 46.4843 40.1485 45.6461 40.1485 44.61C40.1485 43.5739 39.3257 42.7357 38.3086 42.7357C37.2914 42.7357 36.4686 43.5739 36.4686 44.61C36.4686 44.6974 36.4801 44.7846 36.4915 44.8661C32.9887 46.9907 29.006 48.1141 24.8918 48.1141C12.3779 48.1141 2.19529 37.7415 2.19529 24.9942C2.19529 12.2468 12.3779 1.87427 24.8918 1.87427C25.4233 1.87427 25.9489 1.89755 26.4746 1.9383V17.2468C26.4746 21.2282 29.646 24.4586 33.5544 24.4586H39.8V26.0885H33.0116C28.5603 26.0885 24.9433 22.3982 24.9433 17.8696L24.9375 4.53435L23.9604 4.59255C13.4122 5.20955 5.14379 14.1269 5.13236 24.9069C5.12093 35.943 13.5893 44.8894 24.4061 45.2735C24.6404 45.2794 24.869 45.2852 25.1033 45.2852C31.2345 45.2852 37.0286 42.3924 40.8057 37.5378C41 37.596 41.2056 37.631 41.4171 37.631C42.5828 37.631 43.5256 36.6705 43.5313 35.4831C43.5256 34.2899 42.5828 33.3236 41.4171 33.3236ZM130.849 10.0349V16.752H126.644C124.826 16.752 123.341 15.2445 123.341 13.3876V10H120.329V13.3876C120.329 16.9325 123.164 19.8195 126.644 19.8195H130.849V20.227C130.849 22.5436 128.997 24.4295 126.724 24.4295H121.449V27.631H126.724C130.734 27.631 133.992 24.3074 133.992 20.227V10.0349H130.849ZM113.386 21.6822L117.455 27.6077H113.918L110.301 22.3283C110.073 22.3515 109.844 22.3515 109.621 22.3515H105.627V27.6077H102.341V9.58091H109.621C114.273 9.58091 117.153 12.0024 117.153 15.9954C117.153 18.7195 115.786 20.7275 113.386 21.6822ZM113.844 15.9895C113.844 13.7253 112.353 12.4098 109.473 12.4098H105.627V19.5925H109.473C112.353 19.5984 113.844 18.2596 113.844 15.9895ZM77.1932 22.0431L67.4335 9.837H64.7307V27.8638H67.9935V15.6577L77.7533 27.8638H80.456V9.837H77.1932V22.0431ZM83.7931 12.7532H89.7186V28.1083H93.039V12.7532H98.9644V9.88936H83.7931V12.7532Z" />
</svg>
