<svg width="157" height="50" viewBox="0 0 157 50" fill="currentColor" xmlns="http://www.w3.org/2000/svg">
<path d="M11.7938 22.2832L2.55164 22.3145V40.8926L5.66882 40.8691L5.6532 33.5801H11.3251C13.0907 33.5801 14.5204 33.0723 15.5673 32.0723C16.6219 31.0566 17.1532 29.666 17.1532 27.9316C17.1532 26.2051 16.6766 24.8301 15.7391 23.8223C14.7938 22.7988 13.4657 22.2832 11.7938 22.2832ZM14.0282 27.9785C14.0282 29.9395 13.0751 30.8145 10.9423 30.8145H5.66882V25.041H11.2626C13.1766 25.041 14.0282 25.9473 14.0282 27.9785ZM24.4423 27.8301C22.3016 27.8301 20.6141 28.502 19.4266 29.8223C18.3563 31.002 17.8094 32.5957 17.8094 34.5566C17.8094 36.502 18.3719 38.1191 19.4813 39.3535C20.0985 40.0176 20.8251 40.5098 21.6454 40.8223C22.4501 41.1191 23.3876 41.2754 24.4423 41.2754C26.6844 41.2754 28.4266 40.6191 29.6298 39.3223C30.7079 38.166 31.2548 36.5645 31.2548 34.5566C31.2548 32.541 30.7001 30.9238 29.6141 29.7754C28.4344 28.4863 26.6923 27.8301 24.4423 27.8301ZM20.6923 34.5566C20.6923 33.8848 20.7782 33.2754 20.9579 32.7598C21.1219 32.2598 21.3641 31.8379 21.6766 31.502C22.3407 30.7832 23.2469 30.4395 24.4423 30.4395C27.1219 30.4395 28.3719 31.7441 28.3719 34.5566C28.3719 35.2441 28.2938 35.8535 28.1376 36.3613C27.9969 36.8457 27.7782 37.2363 27.4579 37.5801C26.8173 38.3223 25.8329 38.6895 24.4423 38.6895C23.2079 38.6895 22.3016 38.3379 21.6688 37.6113C21.0126 36.8691 20.6923 35.8691 20.6923 34.5566ZM43.1298 33.9473C42.4969 33.6191 41.411 33.3691 39.8251 33.1973C37.8173 32.9473 37.0594 32.7754 36.786 32.6816C36.1376 32.4316 36.0438 32.1191 36.0438 31.8457C36.0438 31.3457 36.2157 31.0254 36.5907 30.791C36.9188 30.5957 37.5829 30.3613 38.9032 30.3613C41.4188 30.3613 41.7391 31.4004 41.7391 32.3145V32.7598H44.6454V32.3145C44.6454 30.2832 43.661 27.8613 38.9501 27.8613C38.0829 27.8613 37.2938 27.9316 36.6141 28.0723C35.911 28.2129 35.3173 28.4238 34.786 28.7207C33.7313 29.4238 33.2001 30.4785 33.2001 31.877C33.2001 33.3223 33.8329 34.3926 35.036 34.9551C35.3563 35.1113 36.0829 35.3535 38.5829 35.7207C40.8876 36.0566 41.3016 36.1582 41.3719 36.1816C41.9188 36.3926 42.1532 36.7207 42.1532 37.2832C42.1532 37.6816 42.1532 38.7676 39.2001 38.7676C37.4969 38.7676 36.7469 38.4316 36.3954 38.1348C36.0751 37.8848 35.9032 37.502 35.8485 36.9941H32.8641C32.9423 37.6426 33.0829 38.2129 33.286 38.6816C33.5438 39.2363 33.8876 39.6973 34.3173 40.0332C34.8485 40.4785 35.5438 40.791 36.3719 40.9785C37.1454 41.1582 38.0985 41.2441 39.2001 41.2441C44.0751 41.2441 45.0985 38.9785 45.0985 37.0801C45.0985 35.627 44.411 34.541 43.1298 33.9473ZM109.731 33.9473C109.091 33.6191 108.005 33.3691 106.419 33.1973C104.419 32.9473 103.661 32.7754 103.388 32.6816C102.731 32.4316 102.645 32.1191 102.645 31.8457C102.645 31.3457 102.809 31.0254 103.192 30.791C103.513 30.5957 104.184 30.3613 105.505 30.3613C108.013 30.3613 108.333 31.4004 108.333 32.3145V32.7598H111.247V32.3145C111.247 30.2832 110.255 27.8613 105.552 27.8613C104.677 27.8613 103.888 27.9316 103.208 28.0723C102.513 28.2129 101.911 28.4238 101.388 28.7207C100.333 29.4238 99.7938 30.4785 99.7938 31.877C99.7938 33.3223 100.427 34.3926 101.63 34.9551C101.958 35.1113 102.677 35.3535 105.184 35.7207C107.481 36.0566 107.903 36.1582 107.966 36.1816C108.52 36.3926 108.747 36.7207 108.747 37.2832C108.747 37.6816 108.747 38.7676 105.802 38.7676C104.091 38.7676 103.341 38.4316 102.989 38.1348C102.669 37.8848 102.497 37.502 102.442 36.9941H99.4579C99.536 37.6426 99.6766 38.2129 99.8876 38.6816C100.138 39.2363 100.481 39.6973 100.911 40.0332C101.45 40.4785 102.138 40.791 102.966 40.9785C103.739 41.1582 104.692 41.2441 105.802 41.2441C110.669 41.2441 111.692 38.9785 111.692 37.0801C111.692 35.627 111.005 34.541 109.731 33.9473ZM70.6298 29.0723C70.4813 28.9395 70.3719 28.8535 70.286 28.7832C69.3251 28.1504 68.0907 27.8301 66.6141 27.8301C64.4657 27.8301 62.7782 28.4551 61.6141 29.6582C60.5048 30.7754 59.9344 32.377 59.9344 34.416C59.9344 35.4238 60.0751 36.3379 60.3485 37.127C60.6298 37.9473 61.0438 38.6504 61.6063 39.2441C62.7704 40.416 64.4188 41.002 66.4969 41.002C68.1923 41.002 69.5751 40.6191 70.6298 39.8457V40.1191C70.6141 42.4551 70.3563 42.8535 69.786 43.4395C69.2391 44.0098 68.2626 44.3066 66.8876 44.3066C65.2469 44.3066 64.4891 43.9785 64.1376 43.7051C63.8094 43.4473 63.5594 42.9082 63.4188 42.1504L63.3094 41.5723L60.4501 41.6035L60.4657 42.3926C60.5048 42.7051 60.5594 42.9941 60.6376 43.2754C60.9032 44.3223 61.4032 45.127 62.1063 45.6816C63.1141 46.4629 64.6923 46.8457 66.9344 46.8457C72.4032 46.8457 73.5516 43.5957 73.5516 40.8613V28.1973H70.6376L70.6298 29.0723ZM68.4969 38.1113C68.0516 38.291 67.5282 38.377 66.9344 38.377C64.1532 38.377 62.911 37.1582 62.911 34.416C62.911 33.1582 63.2391 32.2051 63.911 31.5254C64.5907 30.8379 65.5438 30.5098 66.8251 30.5098C68.1063 30.5098 69.036 30.8379 69.6688 31.5176C70.3173 32.2207 70.6298 33.1504 70.6298 34.3535C70.6298 35.666 70.3016 36.6738 69.6688 37.3379C69.3251 37.6816 68.9266 37.9395 68.4969 38.1113ZM78.786 28.5645C78.7391 28.6035 78.6923 28.6348 78.6454 28.6738V28.2051H75.786L75.8016 40.8613H78.6454V34.6582C78.6454 31.0176 80.3173 30.5957 81.5751 30.5957C81.911 30.5957 83.4969 30.6035 83.4969 30.6035V27.8301H81.8173C80.5048 27.8301 79.5282 28.0645 78.786 28.5645ZM94.4735 36.9941C93.9188 38.1504 92.911 38.7051 91.3329 38.7051C89.9969 38.7051 89.0126 38.3145 88.3173 37.5176C87.8485 36.9785 87.5673 36.3223 87.4657 35.5254H97.911V34.8301C97.911 32.7598 97.3798 31.0957 96.3407 29.877C95.7548 29.1816 95.0126 28.6582 94.1454 28.3223C93.3094 28.002 92.3251 27.8301 91.2235 27.8301C89.1376 27.8301 87.4813 28.4316 86.3016 29.6191C85.1298 30.8066 84.5282 32.4238 84.5282 34.416C84.5282 36.416 85.0985 38.0332 86.2235 39.2285C87.4423 40.5645 89.1688 41.2441 91.3485 41.2441C92.2079 41.2441 93.0204 41.1191 93.7626 40.877C94.5126 40.6348 95.1766 40.2832 95.7704 39.8145C96.6688 39.041 97.2782 38.0957 97.5829 36.9941H94.4735ZM88.4657 31.3301C88.8173 30.9863 89.2235 30.7207 89.661 30.5566C90.1141 30.3848 90.6454 30.2988 91.2235 30.2988C92.3485 30.2988 93.2313 30.6504 93.9344 31.377C94.4579 31.916 94.7782 32.4941 94.911 33.1191H87.5751C87.7704 32.3613 88.0751 31.7598 88.4657 31.3301Z" />
<path d="M58.3097 40.4546V39.7671H55.4894V40.4702C55.4894 40.4702 55.4972 40.853 55.4894 40.978C55.4816 41.1655 55.3878 41.8921 55.341 42.064C55.2628 42.3686 55.1613 42.728 55.1066 42.9233C55.0597 43.0405 55.005 43.1577 54.9503 43.2671C54.4503 44.2515 53.3331 44.7202 52.2472 44.5249C50.6613 44.2515 49.4972 42.7515 49.716 41.1265C49.8253 40.314 50.0206 39.5093 50.3956 38.7827C51.0988 37.4077 51.9581 36.1186 52.8331 34.8452C52.9972 34.603 53.6144 33.6968 54.3331 32.2905C55.0753 32.6265 55.7316 32.814 56.1613 32.9155C56.9581 33.103 57.4425 33.1499 57.8175 33.064C57.8644 33.0483 58.216 32.9936 58.3019 32.853C58.3331 32.8061 58.255 32.7046 58.1535 32.6811C56.9738 32.3686 55.8253 31.978 54.9191 31.0796C55.6847 29.3999 56.4738 27.2436 56.9191 24.7905C57.255 22.9858 57.6456 21.189 57.7316 19.3296C57.8175 17.7827 57.7628 16.064 57.5441 14.6108C57.0988 11.5483 55.7628 9.37646 53.6925 7.1499C50.9894 4.24365 47.216 2.90771 43.3175 2.53271C39.1925 2.14209 36.7941 3.29053 34.966 4.79834C32.7941 6.59521 32.3566 8.2749 32.2003 10.6733C32.0831 12.5952 32.4425 13.6968 33.4113 15.6733C34.1144 17.1108 37.0441 19.603 37.8644 20.9702C38.6535 22.2905 38.4425 22.4546 39.005 23.8921C39.2863 24.6108 40.7238 25.8061 42.0363 25.6265C43.341 25.4468 44.38 24.5093 45.0988 22.6811C45.3566 22.0093 45.3722 21.3686 45.4503 20.7983C45.6456 19.2749 45.5988 18.0171 45.7472 16.1265C45.7706 15.9155 45.7863 15.6655 45.6925 15.5483C45.4347 15.2358 45.0988 15.3686 44.9425 15.6655C44.841 15.853 44.8175 16.0796 44.755 16.2905C44.1613 18.3061 42.9347 21.2202 42.88 21.3921C42.7003 21.8686 42.2472 22.814 41.9347 22.7827C41.7706 22.7671 41.6456 22.7593 41.5519 22.4546C41.4581 22.1265 41.0363 20.5718 39.6222 18.8218C37.1222 15.7202 35.7472 14.228 35.2863 12.1811C34.7863 9.93115 35.8019 7.54053 37.7316 6.4624C38.7394 5.8999 40.841 5.05615 43.0988 5.29053C45.88 5.5874 48.9581 6.57178 50.8722 8.68115C53.1456 11.189 54.6144 12.6108 54.6925 17.1733C54.7394 19.853 54.1456 22.978 53.4972 25.564C53.4113 25.8218 53.3253 26.0874 53.2394 26.353C52.9972 27.0718 52.7785 27.689 52.5675 28.2515C52.505 28.1577 52.3956 28.0015 52.3644 27.9546C52.0206 27.4702 51.716 27.0171 51.3644 26.603C50.9425 26.103 50.5128 25.564 49.9894 25.189C49.3253 24.7124 48.6144 24.5952 48.0363 25.2358C47.7472 25.5561 47.5519 26.0171 47.7628 26.5405C48.38 28.0874 49.5831 29.228 50.9113 30.2983C50.9738 30.353 51.216 30.5171 51.4972 30.6968C51.0285 31.6186 50.4972 32.5093 49.8019 33.689C48.8019 35.3686 47.6613 37.3296 47.2941 38.2436C46.5988 39.9858 46.5285 41.7905 46.9581 43.6108C47.1456 44.4077 47.5363 45.0796 48.0988 45.6733C49.8644 47.564 52.8956 48.0171 55.1847 47.1108C55.716 46.8999 56.2394 46.5093 56.5988 46.064C57.5441 44.8999 58.091 43.5874 58.2628 42.1655C58.2785 42.0093 58.2863 41.5952 58.3019 41.2358C58.3019 41.1733 58.3097 41.1108 58.3097 41.0718C58.3175 40.9155 58.3097 40.4624 58.3097 40.4546ZM53.6691 20.7124C53.6691 21.5171 53.0206 22.1733 52.216 22.1733C51.4113 22.1733 50.755 21.5171 50.755 20.7124C50.755 19.9077 51.4113 19.2593 52.216 19.2593C53.0206 19.2593 53.6691 19.9077 53.6691 20.7124Z" />
<path d="M124.294 22.2832L115.052 22.3145V40.8926L118.169 40.8691L118.153 33.5801H123.825C125.591 33.5801 127.02 33.0723 128.067 32.0723C129.122 31.0566 129.653 29.666 129.653 27.9316C129.653 26.2051 129.177 24.8301 128.239 23.8223C127.294 22.7988 125.966 22.2832 124.294 22.2832ZM126.528 27.9785C126.528 29.9395 125.575 30.8145 123.442 30.8145H118.169V25.041H123.763C125.677 25.041 126.528 25.9473 126.528 27.9785ZM147.099 27.8301C144.958 27.8301 143.27 28.502 142.083 29.8223C141.013 31.002 140.466 32.5957 140.466 34.5566C140.466 36.502 141.028 38.1191 142.138 39.3535C142.755 40.0176 143.481 40.5098 144.302 40.8223C145.106 41.1191 146.044 41.2754 147.099 41.2754C149.341 41.2754 151.083 40.6191 152.286 39.3223C153.364 38.166 153.911 36.5645 153.911 34.5566C153.911 32.541 153.356 30.9238 152.27 29.7754C151.091 28.4863 149.349 27.8301 147.099 27.8301ZM143.349 34.5566C143.349 33.8848 143.434 33.2754 143.614 32.7598C143.778 32.2598 144.02 31.8379 144.333 31.502C144.997 30.7832 145.903 30.4395 147.099 30.4395C149.778 30.4395 151.028 31.7441 151.028 34.5566C151.028 35.2441 150.95 35.8535 150.794 36.3613C150.653 36.8457 150.434 37.2363 150.114 37.5801C149.474 38.3223 148.489 38.6895 147.099 38.6895C145.864 38.6895 144.958 38.3379 144.325 37.6113C143.669 36.8691 143.349 35.8691 143.349 34.5566ZM134.786 28.5645C134.739 28.6035 134.692 28.6348 134.645 28.6738V28.2051H131.786L131.802 40.8613H134.645V34.6582C134.645 31.0176 136.317 30.5957 137.575 30.5957C137.911 30.5957 139.497 30.6035 139.497 30.6035V27.8301H137.817C136.505 27.8301 135.528 28.0645 134.786 28.5645Z" />
</svg>
