<svg width="222" height="46" viewBox="0 0 222 46" fill="currentColor" xmlns="http://www.w3.org/2000/svg">
<path d="M69.7484 23.5592C69.7484 26.8304 67.2029 29.4211 64.0098 29.4211C62.3768 29.4211 61.004 28.8456 59.9975 27.8633V35.064H58.3622V18.0131H59.9975V19.2897C61.004 18.2997 62.3768 17.7289 64.0098 17.7289C67.2029 17.7289 69.7484 20.3226 69.7484 23.5592ZM68.1131 23.5592C68.1131 21.1875 66.2394 19.1717 63.8166 19.1717C62.2805 19.1717 60.9341 19.8364 59.9975 21.2333V25.915C60.9341 27.309 62.2805 27.9807 63.8166 27.9807C66.2394 27.9807 68.1131 25.9649 68.1131 23.5592Z" />
<path d="M79.4263 19.9327C80.4621 18.5381 81.9747 17.7289 83.7763 17.7289V19.2897C81.9501 19.3355 80.414 20.248 79.4263 21.8592V29.1105H77.7939V18.0131H79.4263V19.9327Z" />
<path d="M101.766 23.5592C101.766 26.9026 99.1939 29.4716 95.8804 29.4716C92.5422 29.4716 89.9703 26.9026 89.9703 23.5592C89.9703 20.2721 92.5422 17.7289 95.8804 17.7289C99.1939 17.7289 101.766 20.2721 101.766 23.5592ZM100.133 23.5592C100.133 21.1875 98.3055 19.2392 95.8804 19.2392C93.4553 19.2392 91.6321 21.1875 91.6321 23.5592C91.6321 26.0113 93.4553 27.9807 95.8804 27.9807C98.3055 27.9807 100.133 26.0113 100.133 23.5592Z" />
<path d="M117.179 18.0159V19.4322H112.714V29.1133H111.081V19.4322H107.838V18.0159H111.081V15.1117C111.081 12.5879 112.665 10.9332 115.018 10.9332C115.667 10.9332 116.509 11.0295 117.323 11.2656L117.059 12.6842C116.462 12.5421 115.765 12.4458 115.305 12.4458C113.749 12.4458 112.714 13.5028 112.714 15.1117V18.0159H117.179Z" />
<path d="M125.666 13.8102C125.666 13.1842 126.172 12.7098 126.793 12.7098C127.444 12.7098 127.949 13.1842 127.949 13.8102C127.949 14.4608 127.444 14.9182 126.793 14.9182C126.172 14.9182 125.666 14.4608 125.666 13.8102ZM127.612 29.11H125.979V18.0127H127.612V29.11Z" />
<path d="M137.195 25.6755C137.53 27.1834 138.707 28.0988 140.867 28.0988C142.669 28.0988 143.895 27.3367 143.895 26.1335C143.895 25.1453 143.1 24.5463 141.973 24.3772L139.449 23.9486C137.604 23.655 136.162 22.8411 136.162 20.9651C136.162 18.9704 137.936 17.6774 140.605 17.6774C142.864 17.6774 145.214 18.6603 145.407 21.2035H143.895C143.68 19.7631 142.478 18.9997 140.605 18.9997C138.85 18.9997 137.768 19.7631 137.768 20.847C137.768 21.6873 138.37 22.3326 139.955 22.5757L142.165 22.9586C143.774 23.224 145.479 23.9192 145.479 26.0366C145.479 28.1993 143.534 29.4705 140.82 29.4705C137.936 29.4705 136.017 28.1993 135.656 25.6755L137.195 25.6755Z" />
<path d="M162.249 25.4088H163.949C163.497 27.7869 161.406 29.4187 158.743 29.4187C155.376 29.4187 152.954 26.8492 152.954 23.5568C152.954 20.2914 155.376 17.7266 158.743 17.7266C161.406 17.7266 163.497 19.3595 163.949 21.7318H162.249C161.885 20.2239 160.542 19.2368 158.743 19.2368C156.244 19.2368 154.61 21.1851 154.61 23.5568C154.61 25.9625 156.244 27.9073 158.743 27.9073C160.542 27.9073 161.885 26.9214 162.249 25.4088Z" />
<path d="M183.088 23.5568C183.088 26.9003 180.517 29.4692 177.203 29.4692C173.863 29.4692 171.293 26.9003 171.293 23.5568C171.293 20.2697 173.863 17.7266 177.203 17.7266C180.517 17.7266 183.088 20.2697 183.088 23.5568ZM181.454 23.5568C181.454 21.1851 179.63 19.2368 177.203 19.2368C174.778 19.2368 172.95 21.1851 172.95 23.5568C172.95 26.0089 174.778 27.9783 177.203 27.9783C179.63 27.9783 181.454 26.0089 181.454 23.5568Z" />
<path d="M202.51 23.5568C202.51 26.828 199.961 29.4187 196.766 29.4187C195.13 29.4187 193.768 28.8433 192.756 27.8609V35.0616H191.123V18.0108H192.756V19.2873C193.768 18.2973 195.13 17.7266 196.766 17.7266C199.961 17.7266 202.51 20.3202 202.51 23.5568ZM200.874 23.5568C200.874 21.1851 199.003 19.1693 196.573 19.1693C195.036 19.1693 193.693 19.834 192.756 21.2309V25.9126C193.693 27.3066 195.036 27.9783 196.573 27.9783C199.003 27.9783 200.874 25.9625 200.874 23.5568Z" />
<path d="M221.081 24.2127L220.985 24.1616V24.2127H211.59C211.834 26.3201 213.349 28.0077 215.747 28.0077C217.286 28.0077 218.461 27.353 218.967 26.3025H220.746C220.096 28.1979 218.151 29.4187 215.697 29.4187C212.313 29.4187 209.936 26.8492 209.936 23.5568C209.936 20.2914 212.313 17.7266 215.697 17.7266C218.87 17.7266 221.081 20.1734 221.105 23.5122C221.105 23.7553 221.105 23.9907 221.081 24.2127ZM211.59 22.9355H219.446C219.256 20.6989 217.837 19.1405 215.651 19.1405C213.322 19.1405 211.834 20.8457 211.59 22.9355Z" />
<path d="M23.0693 0.5C10.6426 0.5 0.568726 10.5739 0.568726 23.0006C0.568726 32.139 6.01727 40.0051 13.8428 43.5282V43.5693H13.9397C16.7297 44.8118 19.8186 45.5 23.0693 45.5C35.4955 45.5 45.5699 35.4261 45.5699 23.0006C45.5699 10.5739 35.4955 0.5 23.0693 0.5ZM37.1061 37.0374C33.3563 40.786 28.3711 42.8506 23.0693 42.8506C20.7945 42.8506 18.5782 42.4689 16.4928 41.7408C16.4928 41.7408 16.4928 32.6699 16.4928 29.6987C16.4928 29.6494 16.4878 29.0081 16.4878 29.0081C16.4878 29.0081 16.5996 29.6059 16.6325 29.6388C16.7494 29.7527 16.8686 29.8631 16.9904 29.97C18.6178 31.398 20.7496 32.2647 23.0858 32.2647C28.1914 32.2647 32.3323 28.125 32.3323 23.0182C32.3323 17.9108 28.1914 13.7711 23.0858 13.7711C18.0735 13.7711 13.9957 17.7576 13.8451 22.734H13.8428V22.8373C13.8422 22.8972 13.8384 22.9577 13.8384 23.0182C13.8384 23.0781 13.8422 23.138 13.8428 23.1985V40.5852C12.0921 39.6657 10.4711 38.476 9.03221 37.0374C5.28329 33.2876 3.21872 28.3023 3.21872 23.0006C3.21872 17.6988 5.28329 12.7136 9.03221 8.96378C12.782 5.21456 17.7673 3.14999 23.0693 3.14999C28.3711 3.14999 33.3563 5.21456 37.1061 8.96378C40.8553 12.7136 42.9193 17.6988 42.9193 23.0006C42.9193 28.3023 40.8553 33.2876 37.1061 37.0374ZM23.0858 16.4205C26.7234 16.4205 29.6823 19.38 29.6823 23.0182C29.6823 26.6547 26.7234 29.6153 23.0858 29.6153C19.508 29.6153 16.5885 26.7522 16.4928 23.1979V22.8379C16.5885 19.2837 19.508 16.4205 23.0858 16.4205Z" />
<path d="M23.0383 26.9714C25.2261 26.9714 26.9998 25.1978 26.9998 23.0099C26.9998 20.8221 25.2261 19.0485 23.0383 19.0485C20.8504 19.0485 19.0768 20.8221 19.0768 23.0099C19.0768 25.1978 20.8504 26.9714 23.0383 26.9714Z" />
</svg>
