<svg width="164" height="50" viewBox="0 0 164 50" fill="currentColor" xmlns="http://www.w3.org/2000/svg">
<path d="M20.2487 0H0V20.2487H20.2487V0Z" />
<path d="M20.2487 23.8125H0V44.0612H20.2487V23.8125Z" />
<path d="M44.0834 0H23.8348V20.2487H44.0834V0Z" />
<path d="M39.5655 29.9237C39.5655 31.8475 38.9387 33.371 37.6764 34.5114C36.4229 35.6431 34.7253 36.209 32.5664 36.209H26.5945V44.1221H23.835V23.8125H32.3923C34.673 23.8125 36.4403 24.3436 37.6852 25.4143C38.9387 26.4764 39.5655 27.9824 39.5655 29.9237ZM36.7972 29.9498C36.7972 27.3295 35.2215 26.0149 32.0614 26.0149H26.5945V34.0326H32.1834C35.2563 34.0326 36.7972 32.6659 36.7972 29.9498Z" />
<path d="M44.0762 44.1221V23.8125H59.5021V26.0584H46.8271V32.5701H58.6314V34.79H46.8271V41.8674H60.0939V44.1134H44.0762V44.1221Z" />
<path d="M79.0707 41.8182H81.5953V50.0013H79.0011V44.1164H64.9419V50.0013H62.3477V41.8182H64.4283C65.177 40.8867 65.8125 39.5809 66.3347 37.9008C66.8658 36.2119 67.3098 33.966 67.6667 31.1716L68.6329 23.8242H79.0793V41.8182H79.0707ZM76.3895 41.8182V26.1224H70.9747L70.2696 31.4239C69.9126 34.053 69.5209 36.2032 69.0856 37.8659C68.6503 39.5287 68.1367 40.8431 67.5273 41.8182H76.3895Z" />
<path d="M92.687 26.0083C90.4933 26.0083 88.7783 26.7135 87.5596 28.1325C86.3408 29.5427 85.7314 31.4666 85.7314 33.9302C85.7314 36.3589 86.3669 38.3176 87.6292 39.7976C88.9089 41.2688 90.6325 42.0087 92.8001 42.0087C95.5772 42.0087 97.6664 40.6332 99.068 37.8911L101.262 38.9881C100.443 40.6943 99.2944 41.9913 97.8144 42.8879C96.3433 43.7759 94.6283 44.2286 92.6696 44.2286C90.6674 44.2286 88.935 43.8195 87.4725 42.9925C86.0187 42.1568 84.9044 40.9728 84.1296 39.432C83.3723 37.8825 82.9893 36.0543 82.9893 33.9475C82.9893 30.7876 83.8424 28.3065 85.5486 26.5219C87.2548 24.7287 89.6227 23.832 92.6522 23.832C94.7676 23.832 96.5347 24.2411 97.9451 25.0682C99.364 25.8951 100.409 27.1139 101.07 28.7419L98.5196 29.5862C98.0582 28.4371 97.3182 27.5492 96.291 26.9398C95.2899 26.3129 94.0886 26.0083 92.687 26.0083Z" />
<path d="M123.557 33.9329C123.557 36.0047 123.156 37.8241 122.355 39.3737C121.563 40.9319 120.431 42.1246 118.943 42.9603C117.463 43.796 115.704 44.2138 113.685 44.2138C111.648 44.2138 109.889 43.8048 108.401 42.9777C106.929 42.1507 105.798 40.9581 105.023 39.3998C104.239 37.8329 103.856 36.0135 103.856 33.9241C103.856 30.7554 104.727 28.2743 106.459 26.4985C108.2 24.7052 110.612 23.8086 113.711 23.8086C115.731 23.8086 117.48 24.209 118.969 25.0186C120.449 25.8194 121.581 26.9773 122.364 28.5094C123.165 30.0416 123.557 31.8436 123.557 33.9329ZM120.814 33.9329C120.814 31.4692 120.196 29.528 118.952 28.1264C117.724 26.7161 115.983 26.0196 113.728 26.0196C111.456 26.0196 109.698 26.7161 108.462 28.1003C107.225 29.4844 106.599 31.4344 106.599 33.9416C106.599 36.4225 107.225 38.3987 108.47 39.8612C109.733 41.315 111.474 42.0375 113.693 42.0375C115.983 42.0375 117.741 41.3324 118.96 39.9309C120.196 38.5032 120.814 36.5097 120.814 33.9329Z" />
<path d="M145.927 33.4175C145.927 34.8539 145.623 36.1249 145.023 37.2479C144.43 38.3535 143.577 39.2152 142.454 39.8246C141.34 40.434 140.025 40.7387 138.528 40.7387H137.963V43.9336H135.272V40.7387H134.706C133.191 40.7387 131.877 40.434 130.763 39.8246C129.648 39.2066 128.787 38.3447 128.195 37.2391C127.603 36.1249 127.307 34.8539 127.307 33.4263C127.307 31.1977 127.96 29.4652 129.265 28.2378C130.58 27.0017 132.443 26.3835 134.854 26.3835H135.263V23.8242H137.953V26.3835H138.344C140.765 26.3835 142.628 27.0017 143.933 28.2378C145.274 29.4652 145.927 31.1976 145.927 33.4175ZM143.228 33.4784C143.228 30.0398 141.506 28.3161 138.049 28.3161H137.979V38.8148H138.162C139.799 38.8148 141.053 38.3621 141.923 37.4655C142.785 36.5601 143.228 35.2283 143.228 33.4784ZM130.023 33.4784C130.023 35.2369 130.458 36.5601 131.328 37.4568C132.199 38.3535 133.453 38.8062 135.089 38.8062H135.272V28.3075H135.141C133.435 28.3075 132.147 28.7253 131.294 29.5698C130.458 30.4229 130.023 31.7199 130.023 33.4784Z" />
<path d="M156.828 26.0063V43.6346H154.155V26.0063H147.339V23.8125H163.652V26.0063H156.828Z" />
</svg>
