<svg width="134" height="53" viewBox="0 0 134 53" fill="currentColor" xmlns="http://www.w3.org/2000/svg">
<path d="M9.91037 23.3418L0.572632 16.9545V20.0816L6.95188 24.4058L0.572632 28.7284V31.8556L9.91037 25.4682V23.3418Z" />
<path d="M24.5001 33.0023H13.2208V35.445H24.5001V33.0023Z" />
<path d="M49.5792 26.5501C49.3959 27.6384 49.2986 28.6505 49.1251 29.747H49.0342C48.8931 28.6505 48.6239 27.6384 48.3822 26.5501L47.216 21.2154H45.208L44.0142 26.5501C43.7677 27.6109 43.539 28.6505 43.4076 29.747H43.3216C43.1854 28.6505 43.0426 27.6384 42.8561 26.5501L41.698 20.3006H39.4775L41.7434 31.6707H44.5268L45.5924 26.6977C45.7741 25.7375 45.9346 24.6507 46.0952 23.3288H46.186C46.3547 24.7416 46.525 25.8543 46.697 26.6977L47.7999 31.6707H50.5994L52.8021 20.3006H50.7179L49.5776 26.5501H49.5792Z" />
<path d="M60.127 20.0217C57.1539 20.0217 54.429 22.2649 54.429 25.9662C54.429 29.6676 57.0922 31.9497 60.4611 31.9497C62.1658 31.9497 63.6434 31.3707 64.7853 30.6002L63.9921 29.1356C62.9914 29.7519 61.989 30.1363 60.7466 30.1363C58.5618 30.1363 56.9446 28.9831 56.6851 26.6475H65.1356C65.1811 26.349 65.2394 25.8786 65.2394 25.3888C65.2394 22.2146 63.3839 20.0233 60.1253 20.0233L60.127 20.0217ZM60.1902 21.8172C61.9225 21.8172 63.0433 22.865 63.2136 24.9492H56.737C57.089 22.9169 58.5099 21.8172 60.1918 21.8172H60.1902Z" />
<path d="M90.5471 20.0216C89.269 20.0216 88.5585 20.7921 87.9811 21.9583C87.6762 20.6721 86.9852 20.0216 85.9228 20.0216C84.6415 20.0216 83.9505 20.7564 83.4201 21.7734H83.3666L83.1866 20.3022H81.4235V31.6723H83.6277V23.5851C84.1095 22.526 84.5539 22.0005 85.2335 22.0005C85.9536 22.0005 86.2424 22.5892 86.2424 23.7392V31.6707H88.2001V23.5835C88.7191 22.5244 89.0987 21.9988 89.7831 21.9988C90.5033 21.9988 90.8163 22.5876 90.8163 23.7376V31.6691H93.0206V23.5705C93.0206 21.2998 92.1107 20.02 90.5487 20.02L90.5471 20.0216Z" />
<path d="M95.5898 28.6701C95.5898 30.6732 97.2232 31.9513 99.3463 31.9513C100.866 31.9513 102.412 31.1484 103.599 30.1963H103.672L103.852 31.6707H105.722V24.8227C105.722 21.8204 104.13 20.0217 101.069 20.0217C99.1404 20.0217 97.2929 20.8456 96.0472 21.6339L96.9118 23.1797C97.9985 22.5276 99.3236 21.8999 100.667 21.8999C102.642 21.8999 103.379 23.0288 103.46 24.4351C97.8509 24.8649 95.5915 26.1203 95.5915 28.6701H95.5898ZM103.458 25.9192V28.5825C102.308 29.5394 101.178 30.1104 99.9919 30.1104C98.8062 30.1104 97.8022 29.6368 97.8022 28.4965C97.8022 27.1373 99.0949 26.2403 103.458 25.9192Z" />
<path d="M120.106 20.3022H117.561L112.09 25.9013H111.999V15.1735H109.734V31.6707H111.999V28.6424L114.35 26.2241L118.148 31.6707H120.638L115.735 24.7983L120.106 20.3022Z" />
<path d="M128.328 20.0217C125.355 20.0217 122.63 22.2649 122.63 25.9662C122.63 29.6676 125.293 31.9497 128.662 31.9497C130.367 31.9497 131.844 31.3707 132.986 30.6002L132.193 29.1356C131.192 29.7519 130.19 30.1363 128.947 30.1363C126.763 30.1363 125.146 28.9831 124.886 26.6475H133.337C133.382 26.349 133.44 25.8786 133.44 25.3888C133.44 22.2146 131.585 20.0233 128.326 20.0233L128.328 20.0217ZM128.391 21.8172C130.123 21.8172 131.244 22.865 131.415 24.9492H124.938C125.29 22.9169 126.711 21.8172 128.393 21.8172H128.391Z" />
<path d="M6.01451 45.7754C3.83457 45.3002 2.94735 44.9498 2.94735 44.0594C2.94735 43.2808 3.58641 42.6126 5.2392 42.6126C6.60653 42.6126 7.88789 43.0602 8.94056 43.7772L10.003 42.3303C8.89028 41.5632 7.20342 40.8527 5.43708 40.8527C2.36181 40.8527 0.692794 42.2671 0.692794 44.168C0.692794 45.889 2.06985 46.9287 5.00402 47.5499C7.80031 48.1387 8.26257 48.648 8.26257 49.4525C8.26257 50.3072 7.44672 51.0014 5.74364 51.0014C3.82646 51.0014 2.31315 50.4273 1.0107 49.5092L0.00183105 51.0112C1.36429 51.9698 3.335 52.7791 5.45655 52.7791C8.73619 52.7791 10.5366 51.2172 10.5366 49.3146C10.5366 47.5353 9.62828 46.5816 6.01451 45.7722V45.7754Z" />
<path d="M19.2985 40.8559C16.3254 40.8559 13.6005 43.0991 13.6005 46.8005C13.6005 50.5018 16.2638 52.7839 19.6326 52.7839C21.3373 52.7839 22.8149 52.2049 23.9568 51.4344L23.1637 49.9698C22.1629 50.5861 21.1605 50.9706 19.9181 50.9706C17.7333 50.9706 16.1162 49.8173 15.8566 47.4817H24.3071C24.3526 47.1832 24.411 46.7129 24.411 46.223C24.411 43.0488 22.5554 40.8559 19.2969 40.8559H19.2985ZM19.3617 42.6514C21.094 42.6514 22.2148 43.6992 22.3851 45.7835H15.9085C16.2605 43.7511 17.6814 42.6514 19.3634 42.6514H19.3617Z" />
<path d="M31.0253 43.7707H30.9718L30.769 41.1334H28.8956V52.5034H31.1599V46.0512C32.3894 43.7561 33.9238 42.9256 35.5149 42.9256C36.3697 42.9256 36.793 43.0424 37.5489 43.289L38.0452 41.3199C37.3721 40.9841 36.7282 40.8544 35.8669 40.8544C33.8848 40.8544 32.1737 41.9184 31.0269 43.7707H31.0253Z" />
<path d="M47.5047 47.2855C47.0716 48.4306 46.7245 49.5643 46.3514 50.6884H46.2606C45.8876 49.5643 45.5032 48.4306 45.0879 47.2855L42.7409 41.1333H40.4393L44.9938 52.5034H47.5533L52.0268 41.1333H49.8517L47.5047 47.2855Z" />
<path d="M55.0306 42.984H59.9971V52.505H62.2614V41.1349H55.0306V42.984Z" />
<path d="M60.9476 35.6089C59.9728 35.6089 59.2607 36.2836 59.2607 37.2633C59.2607 38.243 59.9744 38.9096 60.9476 38.9096C61.9208 38.9096 62.6345 38.2624 62.6345 37.2633C62.6345 36.2642 61.9208 35.6089 60.9476 35.6089Z" />
<path d="M74.7247 50.8781C72.3761 50.8781 70.7541 49.2691 70.7541 46.8378C70.7541 44.4064 72.3988 42.7601 74.788 42.7601C75.8666 42.7601 76.7798 43.1964 77.6751 43.949L78.7635 42.486C77.8454 41.5744 76.4797 40.8559 74.689 40.8559C71.3137 40.8559 68.4347 43.0326 68.4347 46.8394C68.4347 50.6462 71.0607 52.7839 74.5414 52.7839C76.1521 52.7839 77.7319 52.1627 78.9922 51.0322L78.019 49.5416C77.135 50.2764 76.0402 50.8781 74.7231 50.8781H74.7247Z" />
<path d="M87.4995 40.8559C84.5264 40.8559 81.8015 43.0991 81.8015 46.8005C81.8015 50.5018 84.4648 52.7839 87.8337 52.7839C89.5384 52.7839 91.016 52.2049 92.1579 51.4344L91.3647 49.9698C90.3639 50.5861 89.3616 50.9706 88.1191 50.9706C85.9343 50.9706 84.3172 49.8173 84.0577 47.4817H92.5082C92.5536 47.1832 92.612 46.7129 92.612 46.223C92.612 43.0488 90.7565 40.8559 87.4979 40.8559H87.4995ZM87.5628 42.6514C89.2951 42.6514 90.4158 43.6992 90.5862 45.7835H84.1096C84.4616 43.7511 85.8824 42.6514 87.5644 42.6514H87.5628Z" />
<path d="M101.494 45.7754C99.3139 45.3002 98.4267 44.9498 98.4267 44.0594C98.4267 43.2808 99.0658 42.6126 100.719 42.6126C102.086 42.6126 103.367 43.0602 104.42 43.7772L105.482 42.3303C104.37 41.5632 102.683 40.8527 100.916 40.8527C97.8412 40.8527 96.1722 42.2671 96.1722 44.168C96.1722 45.889 97.5492 46.9287 100.483 47.5499C103.28 48.1387 103.742 48.648 103.742 49.4525C103.742 50.3072 102.926 51.0014 101.223 51.0014C99.3058 51.0014 97.7925 50.4273 96.4901 49.5092L95.4812 51.0112C96.8437 51.9698 98.8144 52.7791 100.936 52.7791C104.216 52.7791 106.016 51.2172 106.016 49.3146C106.016 47.5353 105.108 46.5816 101.494 45.7722V45.7754Z" />
<path d="M105.291 8.1695C107.515 7.64457 108.892 5.41608 108.367 3.19202C107.842 0.967951 105.614 -0.409473 103.39 0.115454C101.166 0.64038 99.7882 2.86888 100.313 5.09294C100.838 7.31701 103.067 8.69443 105.291 8.1695Z" />
<path d="M119.971 7.06267C121.587 5.44681 121.587 2.82699 119.971 1.21113C118.355 -0.404734 115.736 -0.404733 114.12 1.21113C112.504 2.82699 112.504 5.44682 114.12 7.06268C115.736 8.67854 118.355 8.67853 119.971 7.06267Z" />
<path d="M130.756 8.17036C132.98 7.64543 134.357 5.41693 133.833 3.19287C133.308 0.968806 131.079 -0.408619 128.855 0.116308C126.631 0.641235 125.254 2.86973 125.778 5.0938C126.303 7.31786 128.532 8.69528 130.756 8.17036Z" />
</svg>
