<svg width="77" height="56" viewBox="0 0 77 56" fill="currentColor" xmlns="http://www.w3.org/2000/svg">
<path d="M76.3818 42.0066C76.403 49.3651 70.2941 55.6031 62.6391 55.4934C55.4097 55.3897 49.2086 49.4718 49.3123 41.7725C49.413 34.3195 55.4346 28.4148 62.858 28.4263C70.5372 28.4385 76.4321 34.6881 76.3818 42.006V42.0066Z" />
<path d="M8.65559 41.976C8.65559 37.5828 8.65923 33.1897 8.64832 28.7965C8.64771 28.4843 8.73684 28.4042 9.03755 28.4048C13.2894 28.4127 17.5413 28.4133 21.7938 28.4048C22.0921 28.4042 22.1637 28.5025 22.1637 28.7874C22.157 37.5737 22.157 46.36 22.1637 55.1463C22.1637 55.4167 22.1 55.501 21.8144 55.5004C17.5425 55.4907 13.27 55.4907 8.99815 55.5004C8.72471 55.5004 8.64953 55.4355 8.65014 55.1566C8.65923 50.7635 8.65681 46.3703 8.65681 41.9772L8.65559 41.976Z" />
<path d="M15.3896 27.5885C13.2682 27.5885 11.1468 27.5837 9.02603 27.5946C8.74532 27.5958 8.64771 27.5388 8.64832 27.2344C8.65923 23.4973 8.6562 19.7601 8.65256 16.0224C8.65256 15.8229 8.70288 15.6531 8.80171 15.4822C9.9779 13.4499 11.148 11.4134 12.3236 9.3805C13.4034 7.51314 14.4899 5.64941 15.5715 3.78326C16.1754 2.74106 16.7798 1.69885 17.371 0.649369C17.4316 0.54145 17.4801 0.498403 17.5923 0.508104C17.6323 0.511741 17.6729 0.508104 17.7135 0.508104C21.9563 0.508104 26.1985 0.508104 30.4413 0.508104C30.8026 0.508104 30.8214 0.538418 30.6444 0.84338C29.3409 3.09149 28.0349 5.33778 26.7326 7.58711C25.2545 10.1408 23.7806 12.6969 22.3013 15.25C22.1788 15.461 22.1552 15.6816 22.1558 15.9175C22.1582 19.6546 22.1576 23.3918 22.157 27.1295C22.157 27.4343 22.0022 27.5869 21.6926 27.5873C19.5918 27.5873 17.4904 27.5873 15.3896 27.5873V27.5885Z" />
<path d="M45.5486 27.5957C42.8616 27.5957 40.1751 27.5915 37.4886 27.6024C37.2195 27.6036 37.0679 27.5175 36.9369 27.2896C35.4788 24.7486 34.0128 22.2119 32.548 19.6746C31.8156 18.4056 31.0808 17.1373 30.3454 15.8701C30.2538 15.7125 30.2338 15.5852 30.3405 15.4027C31.524 13.3747 32.6935 11.3382 33.8673 9.30406C35.0356 7.27907 36.2033 5.25407 37.3716 3.22968C37.7627 2.55185 38.1598 1.87705 38.5448 1.19498C38.6606 0.98945 38.7352 1.01673 38.8388 1.1968C40.1254 3.43097 41.4125 5.66453 42.7015 7.89748C44.2766 10.6258 45.8536 13.3528 47.4293 16.0805C49.0057 18.8082 50.582 21.5359 52.1577 24.2642C52.7349 25.2633 53.3115 26.2631 53.8851 27.2647C54.0706 27.5891 54.0651 27.5939 53.7001 27.5939C50.9834 27.5939 48.266 27.5939 45.5492 27.5939L45.5486 27.5957Z" />
<path d="M22.976 41.9729C22.976 37.6094 22.976 33.246 22.976 28.8826C22.976 28.5915 23.1157 28.4478 23.395 28.4515C25.1938 28.4745 26.8963 28.9062 28.5326 29.6374C30.0302 30.3061 31.3567 31.2307 32.5087 32.3833C33.8795 33.7559 34.915 35.3565 35.6068 37.1838C36.2658 38.9257 36.5526 40.7215 36.4707 42.5695C36.3756 44.7188 35.7923 46.7377 34.7246 48.6154C34.1038 49.7079 33.3556 50.704 32.4614 51.5801C30.9378 53.0728 29.1644 54.1683 27.126 54.828C25.9201 55.2178 24.6857 55.4294 23.4228 55.4888C22.9766 55.51 22.976 55.5064 22.976 55.0644C22.976 50.701 22.976 46.3375 22.976 41.9741V41.9729Z" />
<path d="M37.3688 29.676C37.7023 30.2447 38.0394 30.811 38.3698 31.3821C39.9122 34.0486 41.4528 36.7156 42.9933 39.3833C44.1077 41.3119 45.2208 43.2417 46.3346 45.1709C48.0352 48.1162 49.7359 51.0616 51.4371 54.0069C51.6584 54.3895 51.8815 54.7708 52.1022 55.154C52.2847 55.4705 52.2719 55.4923 51.9148 55.4923C47.8339 55.4923 43.753 55.4923 39.6721 55.4923C38.9852 55.4923 38.2983 55.4814 37.6113 55.4984C37.3634 55.5044 37.29 55.4414 37.2912 55.1843C37.3015 52.952 37.2973 50.7196 37.2973 48.4879C37.2973 42.3268 37.2973 36.1651 37.2973 30.004C37.2973 29.9052 37.2973 29.807 37.2973 29.7082C37.3215 29.6979 37.3452 29.6875 37.3694 29.6772L37.3688 29.676Z" />
<path d="M-0.00769437 0.513568H0.371235C5.61258 0.513568 10.8545 0.513568 16.0959 0.515387C16.2032 0.515387 16.3517 0.460821 16.4081 0.554796C16.4724 0.662715 16.3572 0.774878 16.299 0.876128C15.3004 2.60526 14.3013 4.33378 13.3015 6.0623C12.3375 7.72959 11.3729 9.39627 10.4101 11.0642C9.75837 12.1937 9.10964 13.3256 8.45849 14.4557C8.26994 14.7825 8.25417 14.7819 8.06137 14.4503C6.96642 12.5678 5.86904 10.6871 4.77954 8.80151C3.23897 6.13445 1.70567 3.46315 0.168129 0.793673C0.12387 0.717281 0.0741542 0.64392 -0.00830078 0.514175L-0.00769437 0.513568Z" />
<path d="M40.4766 28.4137C41.5667 28.4215 42.6592 28.3652 43.7457 28.4652C45.0825 28.5883 46.2745 29.0915 47.3094 29.9518C48.4808 30.9255 49.2301 32.166 49.5381 33.6514C49.837 35.0931 49.6721 36.4967 49.0252 37.8293C48.2607 39.4044 47.0408 40.4903 45.4275 41.1457C45.0419 41.3021 45.0449 41.2942 44.8285 40.9195C43.5577 38.7211 42.2827 36.5246 41.0125 34.3262C39.923 32.4406 38.839 30.5514 37.7458 28.6683C37.6179 28.4482 37.6943 28.4118 37.9011 28.4131C38.7596 28.4161 39.6187 28.4143 40.4772 28.4143L40.4766 28.4137Z" />
<path d="M29.7318 27.5995C27.7117 27.5995 25.6915 27.5995 23.672 27.5995C23.31 27.5995 23.3016 27.5885 23.4762 27.2854C24.5754 25.3823 25.677 23.4804 26.7768 21.5778C27.7056 19.9712 28.6332 18.3639 29.5615 16.7566C29.7258 16.4717 29.7482 16.4686 29.9131 16.7554C31.0796 18.7816 32.2412 20.8109 33.409 22.8359C34.2608 24.3134 35.1205 25.7867 35.9772 27.2612C36.17 27.5934 36.1682 27.5995 35.7917 27.5995C33.7715 27.6001 31.7514 27.5995 29.7318 27.5995Z" />
</svg>
