<svg width="14" height="12" viewBox="0 0 14 12" fill="currentColor" xmlns="http://www.w3.org/2000/svg">
<path d="M1.33078 5.19028C4.83863 3.69354 7.17775 2.7068 8.34814 2.23006C11.6898 0.868858 12.3842 0.632403 12.8368 0.624595C12.9363 0.622878 13.1589 0.647037 13.3031 0.761604C13.4248 0.858341 13.4583 0.98902 13.4743 1.08074C13.4903 1.17246 13.5103 1.38139 13.4944 1.54465C13.3133 3.40803 12.5298 7.92996 12.1312 10.017C11.9625 10.9001 11.6279 11.0891 11.3064 11.1181C10.6076 11.181 10.0794 10.7729 9.40262 10.3384C8.34356 9.65853 7.95428 9.47541 6.92628 8.81197C5.73825 8.04525 6.38641 7.64394 7.06347 6.95525C7.24066 6.77502 10.3414 3.96738 10.401 3.71859C10.4084 3.68747 10.3064 3.37636 10.2361 3.31512C10.1657 3.25388 10.0619 3.27482 9.98691 3.29147C9.88069 3.31508 8.18884 4.41023 4.91134 6.57692C4.43111 6.89987 3.99613 7.05722 3.60641 7.04897C3.17677 7.03988 2.35031 6.81107 1.73593 6.61548C0.982365 6.37559 0.704198 6.26261 0.75635 5.8552C0.783514 5.643 0.97499 5.42136 1.33078 5.19028Z"/>
</svg>
